<?xml version="1.0" encoding="iso-8859-1"?>
<!-- Generator: Adobe Illustrator 19.0.0, SVG Export Plug-In . SVG Version: 6.00 Build 0)  -->
<svg version="1.1" id="Capa_1" xmlns="http://www.w3.org/2000/svg" xmlns:xlink="http://www.w3.org/1999/xlink" x="0px" y="0px"
	 viewBox="0 0 511.945 511.945" style="enable-background:new 0 0 511.945 511.945;" xml:space="preserve">
<g>
	<path style="fill:#F0C419;" d="M336.527,159.603c-6.194-3.067-10.074-9.42-9.975-16.331v-28.513c0-4.875-3.952-8.828-8.828-8.828
		H194.139c-4.875,0-8.828,3.952-8.828,8.828v28.778c0.097,6.748-3.676,12.957-9.71,15.978
		C97.668,197.01,56.016,283.41,75.222,367.734s94.166,144.164,180.649,144.211c86.483,0.047,161.509-59.711,180.807-144.013
		C455.976,283.63,414.419,197.184,336.527,159.603z M255.932,459.035c-73.13,0-132.414-59.284-132.414-132.414
		s59.284-132.414,132.414-132.414s132.414,59.284,132.414,132.414C388.258,399.715,329.025,458.948,255.932,459.035z"/>
	<path style="fill:#F29C1F;" d="M255.932,167.725c-87.756,0-158.897,71.14-158.897,158.897s71.14,158.897,158.897,158.897
		s158.897-71.14,158.897-158.897C414.697,238.92,343.633,167.856,255.932,167.725z M255.932,459.035
		c-73.13,0-132.414-59.284-132.414-132.414s59.284-132.414,132.414-132.414s132.414,59.284,132.414,132.414
		C388.258,399.715,329.025,458.948,255.932,459.035z"/>
	<path style="fill:#FF5364;" d="M317.725,44.139L293.811,4.291c-1.593-2.659-4.465-4.288-7.565-4.29h-60.628
		c-3.1,0.002-5.972,1.631-7.565,4.29l-23.914,39.848v17.655c0,4.875,3.952,8.828,8.828,8.828h105.931
		c4.875,0,8.828-3.952,8.828-8.828V44.139z"/>
	<path style="fill:#DF4D60;" d="M317.725,44.139v17.655c0,4.875-3.952,8.828-8.828,8.828h-52.966V0l30.279,0.001
		c3.127-0.04,6.031,1.615,7.592,4.326L317.725,44.139z"/>
	<path style="fill:#E64C3C;" d="M255.932,44.139v26.483h-52.966c-4.875,0-8.828-3.952-8.828-8.828V44.139H255.932z"/>
	<path style="fill:#C03A2B;" d="M317.725,44.139v17.655c0,4.875-3.952,8.828-8.828,8.828h-52.966V44.139H317.725z"/>
	<g>
		<path style="fill:#F3D55B;" d="M238.276,150.07h-52.966c-4.875,0-8.828-3.952-8.828-8.828s3.952-8.828,8.828-8.828h52.966
			c4.875,0,8.828,3.952,8.828,8.828S243.152,150.07,238.276,150.07z"/>
		<path style="fill:#F3D55B;" d="M326.552,150.07h-52.966c-4.875,0-8.828-3.952-8.828-8.828s3.952-8.828,8.828-8.828h52.966
			c4.875,0,8.828,3.952,8.828,8.828S331.428,150.07,326.552,150.07z"/>
	</g>
</g>
<g>
</g>
<g>
</g>
<g>
</g>
<g>
</g>
<g>
</g>
<g>
</g>
<g>
</g>
<g>
</g>
<g>
</g>
<g>
</g>
<g>
</g>
<g>
</g>
<g>
</g>
<g>
</g>
<g>
</g>
</svg>
