<?xml version="1.0" encoding="iso-8859-1"?>
<!-- Generator: Adobe Illustrator 19.0.0, SVG Export Plug-In . SVG Version: 6.00 Build 0)  -->
<svg version="1.1" id="Capa_1" xmlns="http://www.w3.org/2000/svg" xmlns:xlink="http://www.w3.org/1999/xlink" x="0px" y="0px"
	 viewBox="0 0 511.976 511.976" style="enable-background:new 0 0 511.976 511.976;" xml:space="preserve">
<g>
	<path style="fill:#E57E25;" d="M494.333,173.902v70.621c-0.033,5.495-2.333,10.733-6.356,14.477l-73.092,68.767l-15.801,14.83
		l-54.819-77.771L494.333,173.902z"/>
	<g>
		<path style="fill:#F29C1F;" d="M17.643,173.902v70.621c0.033,5.495,2.333,10.733,6.356,14.477l88.894,83.597l37.164-77.771
			L17.643,173.902z"/>
		<path style="fill:#F29C1F;" d="M414.884,421.428v70.621c-0.111,6.978-3.808,13.407-9.783,17.014
			c-5.975,3.607-13.386,3.882-19.613,0.729l-120.673-57.397c-5.774-2.913-12.587-2.913-18.361,0l-119.967,57.379
			c-6.224,3.151-13.631,2.878-19.605-0.725c-5.974-3.602-9.673-10.026-9.791-17.001v-70.621l158.897-68.326L414.884,421.428z"/>
	</g>
	<path style="fill:#E57E25;" d="M414.884,421.428v70.621c-0.111,6.978-3.808,13.407-9.783,17.014
		c-5.975,3.607-13.386,3.882-19.613,0.729l-120.673-57.379c-2.739-1.391-5.756-2.145-8.828-2.207v-97.103L414.884,421.428z"/>
	<path style="fill:#F0C419;" d="M273.987,10.971l58.341,114.061c3,5.849,8.663,9.868,15.175,10.77l129.439,18.15
		c7.648,1.041,14.018,6.382,16.377,13.73c2.359,7.349,0.288,15.399-5.325,20.697l-92.884,87.393
		c-4.925,4.623-7.182,11.419-6.003,18.07l25.45,123.939c1.296,7.526-1.771,15.137-7.922,19.662s-14.331,5.187-21.129,1.709
		l-120.691-57.379c-5.768-2.923-12.584-2.923-18.353,0L126.47,439.153c-6.799,3.478-14.978,2.816-21.129-1.709
		c-6.151-4.525-9.218-12.137-7.922-19.662l25.45-123.939c1.18-6.651-1.078-13.447-6.003-18.07l-92.884-87.393
		c-5.613-5.298-7.684-13.348-5.325-20.697c2.359-7.349,8.729-12.689,16.377-13.73l129.439-18.15
		c6.511-0.902,12.174-4.921,15.175-10.77l58.342-114.061C241.462,4.234,248.408,0,255.988,0S270.514,4.234,273.987,10.971z"/>
	<path style="fill:#FF5364;" d="M279.416,343.639c-15.165-7.415-32.922-7.327-48.013,0.238l-73.454,34.745
		c-2.897,1.397-6.335,1.036-8.879-0.933c-2.543-1.969-3.754-5.207-3.127-8.362l15.228-73.419
		c3.164-17.576-2.861-35.551-15.978-47.669l-54.237-50.503c-2.386-2.217-3.275-5.613-2.28-8.715
		c0.995-3.101,3.693-5.347,6.924-5.763l100.07-13.886c2.736-0.373,5.119-2.052,6.391-4.502l46.354-89.662
		c1.473-2.821,4.392-4.589,7.574-4.589c3.182,0,6.101,1.768,7.574,4.589l46.354,89.671c1.272,2.45,3.656,4.13,6.391,4.502
		l100.069,13.886c3.234,0.404,5.942,2.643,6.947,5.743c1.004,3.1,0.124,6.502-2.259,8.725l-54.272,50.494
		c-13.122,12.116-19.15,30.092-15.987,47.669l15.254,73.543c0.622,3.152-0.588,6.385-3.127,8.354
		c-2.539,1.969-5.971,2.337-8.87,0.95L279.416,343.639z"/>
</g>
<g>
</g>
<g>
</g>
<g>
</g>
<g>
</g>
<g>
</g>
<g>
</g>
<g>
</g>
<g>
</g>
<g>
</g>
<g>
</g>
<g>
</g>
<g>
</g>
<g>
</g>
<g>
</g>
<g>
</g>
</svg>
