<?xml version="1.0" encoding="iso-8859-1"?>
<!-- Generator: Adobe Illustrator 19.0.0, SVG Export Plug-In . SVG Version: 6.00 Build 0)  -->
<svg version="1.1" id="Capa_1" xmlns="http://www.w3.org/2000/svg" xmlns:xlink="http://www.w3.org/1999/xlink" x="0px" y="0px"
	 viewBox="0 0 512.034 512.034" style="enable-background:new 0 0 512.034 512.034;" xml:space="preserve">
<g>
	<path style="fill:#C03A2B;" d="M119.842,195.904c-3-2.26-7.134-2.26-10.134,0L0.017,287.358l70.206,212.48
		c3.318,7.77,11.144,12.632,19.58,12.164h49.946c8.435,0.467,16.261-4.395,19.58-12.164l70.206-212.48L119.842,195.904z"/>
	<path style="fill:#DF4D60;" d="M229.534,287.358l-70.206,212.48c-3.318,7.77-11.144,12.632-19.58,12.164h-11.476l33.757-186.262
		L229.534,287.358z"/>
	<path style="fill:#FF5364;" d="M101.278,512.003H89.802c-8.435,0.467-16.261-4.395-19.58-12.164L0.017,287.358l67.505,38.382
		L101.278,512.003z"/>
	<path style="fill:#FB7B76;" d="M114.775,194.21L67.521,325.741L0.017,287.358l109.692-91.454
		C111.145,194.76,112.939,194.16,114.775,194.21z"/>
	<g>
		<polygon style="fill:#FF5364;" points="162.03,325.714 67.521,325.714 114.775,194.21 		"/>
		<path style="fill:#FF5364;" d="M229.534,287.358l-67.505,38.382L114.775,194.21c1.836-0.05,3.63,0.551,5.067,1.695
			L229.534,287.358z"/>
	</g>
	<path style="fill:#804169;" d="M402.325,195.904c-3-2.26-7.134-2.26-10.134,0L282.5,287.358l70.206,212.48
		c3.318,7.77,11.144,12.632,19.58,12.164h49.946c8.436,0.467,16.261-4.395,19.58-12.164l70.206-212.48L402.325,195.904z"/>
	<g>
		<path style="fill:#894B9D;" d="M512.017,287.358l-70.206,212.48c-3.318,7.77-11.144,12.632-19.58,12.164h-11.476l33.757-186.262
			L512.017,287.358z"/>
		<path style="fill:#894B9D;" d="M383.761,512.003h-11.476c-8.436,0.467-16.261-4.395-19.58-12.164L282.5,287.358l67.505,38.382
			L383.761,512.003z"/>
	</g>
	<path style="fill:#955BA5;" d="M397.258,194.21l-47.254,131.531L282.5,287.358l109.692-91.454
		C393.628,194.76,395.422,194.16,397.258,194.21z"/>
	<polygon style="fill:#894B9D;" points="444.512,325.714 350.004,325.714 397.258,194.21 	"/>
	<path style="fill:#955BA5;" d="M512.017,287.358l-67.505,38.382L397.258,194.21c1.836-0.05,3.63,0.551,5.067,1.695L512.017,287.358
		z"/>
	<path style="fill:#4C8056;" d="M262.638,2.739c-3.659-3.65-9.582-3.65-13.241,0L105.948,150.072l91.807,342.334
		c3.135,11.56,13.623,19.589,25.6,19.597h65.324c11.977-0.009,22.465-8.037,25.6-19.597l91.807-342.334L262.638,2.739z"/>
	<g>
		<path style="fill:#4FBA6F;" d="M406.086,150.072l-91.807,342.334c-3.135,11.56-13.623,19.589-25.6,19.597h-15.007l44.138-300.138
			L406.086,150.072z"/>
		<path style="fill:#4FBA6F;" d="M238.362,512.003h-15.007c-11.977-0.009-22.465-8.037-25.6-19.597l-91.807-342.334l88.276,61.793
			L238.362,512.003z"/>
	</g>
	<path style="fill:#71C285;" d="M256.017,0.001l-61.793,211.863l-88.276-61.793L249.396,2.739
		C251.129,0.95,253.526-0.041,256.017,0.001z"/>
	<polygon style="fill:#4FBA6F;" points="317.81,211.865 194.224,211.865 256.017,0.003 	"/>
	<path style="fill:#71C285;" d="M406.086,150.072l-88.276,61.793L256.017,0.001c2.491-0.042,4.888,0.948,6.621,2.738
		L406.086,150.072z"/>
</g>
<g>
</g>
<g>
</g>
<g>
</g>
<g>
</g>
<g>
</g>
<g>
</g>
<g>
</g>
<g>
</g>
<g>
</g>
<g>
</g>
<g>
</g>
<g>
</g>
<g>
</g>
<g>
</g>
<g>
</g>
</svg>
