<?xml version="1.0" encoding="iso-8859-1"?>
<!-- Generator: Adobe Illustrator 19.0.0, SVG Export Plug-In . SVG Version: 6.00 Build 0)  -->
<svg version="1.1" id="Capa_1" xmlns="http://www.w3.org/2000/svg" xmlns:xlink="http://www.w3.org/1999/xlink" x="0px" y="0px"
	 viewBox="0 0 512 512" style="enable-background:new 0 0 512 512;" xml:space="preserve">
<g>
	<path style="fill:#CBB292;" d="M485.517,397.241v79.448c-0.029,9.739-7.917,17.626-17.655,17.655H132.414v-79.448L485.517,397.241z
		"/>
	<g>
		<path style="fill:#59474E;" d="M388.414,467.862H194.207c-4.875,0-8.828-3.952-8.828-8.828s3.952-8.828,8.828-8.828h194.207
			c4.875,0,8.828,3.952,8.828,8.828S393.289,467.862,388.414,467.862z"/>
		<path style="fill:#59474E;" d="M485.517,450.207v17.655h-61.793c-4.875,0-8.828-3.952-8.828-8.828s3.952-8.828,8.828-8.828
			H485.517z"/>
	</g>
	<path style="fill:#805333;" d="M123.586,17.655h344.055c9.873,0,17.876,8.003,17.876,17.876v370.317
		c0,9.873-8.003,17.876-17.876,17.876H123.586V17.655z"/>
	<path style="fill:#7F6E5D;" d="M26.483,353.103v141.241c0,9.751,7.904,17.655,17.655,17.655h70.621
		c9.751,0,17.655-7.905,17.655-17.655V361.931L26.483,353.103z"/>
	<path style="fill:#603E26;" d="M44.138,0h70.621c9.751,0,17.655,7.904,17.655,17.655v406.069c0,9.751-7.904,17.655-17.655,17.655
		H44.138c-9.751,0-17.655-7.904-17.655-17.655V17.655C26.483,7.904,34.387,0,44.138,0z"/>
	<path style="fill:#482F1C;" d="M35.31,158.897h88.276c4.875,0,8.828,3.952,8.828,8.828V256c0,4.875-3.952,8.828-8.828,8.828H35.31
		c-4.875,0-8.828-3.952-8.828-8.828v-88.276C26.483,162.849,30.435,158.897,35.31,158.897z"/>
	<path style="fill:#2C2F38;" d="M88.276,485.517H70.621c-4.875,0-8.828-3.952-8.828-8.828s3.952-8.828,8.828-8.828h17.655
		c4.875,0,8.828,3.952,8.828,8.828S93.151,485.517,88.276,485.517z"/>
	<g>
		<path style="fill:#F0C419;" d="M485.517,35.31v88.276L379.586,17.655h88.276C477.601,17.684,485.488,25.572,485.517,35.31z"/>
		<path style="fill:#F0C419;" d="M485.517,317.793v88.276c-0.029,9.739-7.917,17.626-17.655,17.655h-88.276L485.517,317.793z"/>
	</g>
	<g>
		<path style="fill:#CBB292;" d="M388.414,291.31H203.034c-3.125,0-6.017-1.652-7.604-4.344c-1.587-2.692-1.633-6.022-0.121-8.756
			L288,110.486c1.689-2.629,4.599-4.219,7.724-4.219c3.125,0,6.035,1.589,7.724,4.219l92.69,167.724
			c1.512,2.734,1.467,6.064-0.121,8.756C394.43,289.658,391.539,291.31,388.414,291.31z M218.041,273.655h155.454l-77.771-140.65
			L218.041,273.655z"/>
		<path style="fill:#CBB292;" d="M295.724,344.276c-3.212,0-6.17-1.745-7.724-4.555l-92.69-167.724
			c-1.512-2.734-1.467-6.064,0.121-8.756c1.587-2.692,4.479-4.344,7.604-4.344h185.379c3.125,0,6.017,1.652,7.604,4.344
			c1.587,2.692,1.633,6.022,0.121,8.756l-92.69,167.724C301.894,342.531,298.936,344.276,295.724,344.276z M218.041,176.552
			l77.683,140.65l77.727-140.65H218.041z"/>
		<path style="fill:#CBB292;" d="M295.724,344.276c-65.817,0-119.172-53.355-119.172-119.172s53.355-119.172,119.172-119.172
			s119.172,53.355,119.172,119.172C414.824,290.89,361.511,344.203,295.724,344.276z M295.724,123.586
			c-56.066,0-101.517,45.451-101.517,101.517s45.451,101.517,101.517,101.517s101.517-45.451,101.517-101.517
			C397.178,169.063,351.764,123.649,295.724,123.586z"/>
	</g>
</g>
<g>
</g>
<g>
</g>
<g>
</g>
<g>
</g>
<g>
</g>
<g>
</g>
<g>
</g>
<g>
</g>
<g>
</g>
<g>
</g>
<g>
</g>
<g>
</g>
<g>
</g>
<g>
</g>
<g>
</g>
</svg>
