<?xml version="1.0" encoding="iso-8859-1"?>
<!-- Generator: Adobe Illustrator 19.0.0, SVG Export Plug-In . SVG Version: 6.00 Build 0)  -->
<svg version="1.1" id="Capa_1" xmlns="http://www.w3.org/2000/svg" xmlns:xlink="http://www.w3.org/1999/xlink" x="0px" y="0px"
	 viewBox="0 0 512 512" style="enable-background:new 0 0 512 512;" xml:space="preserve">
<g>
	<path style="fill:#CBB292;" d="M485.517,397.241v79.448c-0.029,9.739-7.917,17.626-17.655,17.655H132.414v-79.448L485.517,397.241z
		"/>
	<g>
		<path style="fill:#59474E;" d="M388.414,467.862H194.207c-4.875,0-8.828-3.952-8.828-8.828s3.952-8.828,8.828-8.828h194.207
			c4.875,0,8.828,3.952,8.828,8.828S393.289,467.862,388.414,467.862z"/>
		<path style="fill:#59474E;" d="M485.517,450.207v17.655h-61.793c-4.875,0-8.828-3.952-8.828-8.828s3.952-8.828,8.828-8.828
			H485.517z"/>
	</g>
	<path style="fill:#805333;" d="M123.586,17.655h344.055c9.873,0,17.876,8.003,17.876,17.876v370.317
		c0,9.873-8.003,17.876-17.876,17.876H123.586V17.655z"/>
	<path style="fill:#7F6E5D;" d="M26.483,353.103v141.241c0,9.751,7.904,17.655,17.655,17.655h70.621
		c9.751,0,17.655-7.905,17.655-17.655V361.931L26.483,353.103z"/>
	<path style="fill:#603E26;" d="M44.138,0h70.621c9.751,0,17.655,7.904,17.655,17.655v406.069c0,9.751-7.904,17.655-17.655,17.655
		H44.138c-9.751,0-17.655-7.904-17.655-17.655V17.655C26.483,7.904,34.387,0,44.138,0z"/>
	<path style="fill:#482F1C;" d="M35.31,158.897h88.276c4.875,0,8.828,3.952,8.828,8.828V256c0,4.875-3.952,8.828-8.828,8.828H35.31
		c-4.875,0-8.828-3.952-8.828-8.828v-88.276C26.483,162.849,30.435,158.897,35.31,158.897z"/>
	<path style="fill:#F0C419;" d="M288.115,256H132.414v-88.276h155.701c2.065,0.001,4.064,0.726,5.65,2.048l42.372,35.31
		c2.011,1.677,3.174,4.161,3.174,6.78c0,2.619-1.163,5.102-3.174,6.78l-42.372,35.31C292.179,255.274,290.18,255.999,288.115,256z"
		/>
	<path style="fill:#E57E25;" d="M264.828,229.517c-4.875,0-8.828-3.952-8.828-8.828v-17.655c0-4.875,3.952-8.828,8.828-8.828
		s8.828,3.952,8.828,8.828v17.655C273.655,225.565,269.703,229.517,264.828,229.517z"/>
	<path style="fill:#2C2F38;" d="M88.276,485.517H70.621c-4.875,0-8.828-3.952-8.828-8.828s3.952-8.828,8.828-8.828h17.655
		c4.875,0,8.828,3.952,8.828,8.828S93.151,485.517,88.276,485.517z"/>
	<g>
		<path style="fill:#F0C419;" d="M485.517,35.31v88.276L379.586,17.655h88.276C477.601,17.684,485.488,25.572,485.517,35.31z"/>
		<path style="fill:#F0C419;" d="M485.517,317.793v88.276c-0.029,9.739-7.917,17.626-17.655,17.655h-88.276L485.517,317.793z"/>
	</g>
</g>
<g>
</g>
<g>
</g>
<g>
</g>
<g>
</g>
<g>
</g>
<g>
</g>
<g>
</g>
<g>
</g>
<g>
</g>
<g>
</g>
<g>
</g>
<g>
</g>
<g>
</g>
<g>
</g>
<g>
</g>
</svg>
