<?xml version="1.0" encoding="iso-8859-1"?>
<!-- Generator: Adobe Illustrator 19.0.0, SVG Export Plug-In . SVG Version: 6.00 Build 0)  -->
<svg version="1.1" id="Capa_1" xmlns="http://www.w3.org/2000/svg" xmlns:xlink="http://www.w3.org/1999/xlink" x="0px" y="0px"
	 viewBox="0 0 512 512" style="enable-background:new 0 0 512 512;" xml:space="preserve">
<g>
	<path style="fill:#B0D3F0;" d="M87.266,373.153h-53.04c-4.606,0.007-8.415-3.585-8.678-8.183L8.86,72.591
		c-0.113-2.046,0.502-4.065,1.736-5.701l43.208-57.63c1.639-2.185,4.211-3.471,6.942-3.471s5.304,1.286,6.942,3.471l43.225,57.63
		c1.233,1.636,1.848,3.656,1.736,5.701L95.926,364.969C95.664,369.561,91.865,373.151,87.266,373.153z"/>
	<g>
		<path style="fill:#90BAE1;" d="M60.746,104.136c-4.793,0-8.678-3.885-8.678-8.678V60.746c0-4.793,3.885-8.678,8.678-8.678
			s8.678,3.885,8.678,8.678v34.712C69.424,100.25,65.538,104.136,60.746,104.136z"/>
		<path style="fill:#90BAE1;" d="M60.746,277.695c-4.793,0-8.678-3.885-8.678-8.678V130.169c0-4.793,3.885-8.678,8.678-8.678
			s8.678,3.885,8.678,8.678v138.847C69.424,273.81,65.538,277.695,60.746,277.695z"/>
	</g>
	<polygon style="fill:#F0C419;" points="95.458,373.153 93.722,399.186 92.594,416.542 91.379,433.898 90.251,451.254 
		86.78,503.322 34.712,503.322 26.034,373.153 	"/>
	<g>
		<path style="fill:#805333;" d="M93.722,399.186l-1.128,17.356H60.746c-4.793,0-8.678-3.885-8.678-8.678s3.885-8.678,8.678-8.678
			H93.722z"/>
		<path style="fill:#805333;" d="M91.379,433.898l-1.128,17.356H69.424c-4.793,0-8.678-3.885-8.678-8.678
			c0-4.793,3.885-8.678,8.678-8.678H91.379z"/>
	</g>
	<path style="fill:#F0C419;" d="M512,64.304v268.409c0.01,25.548-11.034,49.852-30.286,66.647l-95.458,82.788
		c-32.382,28.204-80.605,28.204-112.987,0l-95.458-82.788c-19.252-16.795-30.297-41.098-30.286-66.647V64.304
		c0.035-4.282,2.643-8.122,6.609-9.735c3.967-1.613,8.514-0.683,11.528,2.359c16.835,14.54,39.776,19.804,61.266,14.058
		c22.823-5.554,39.224-22.216,54.758-38.791c3.558-3.818,7.116-7.637,10.761-11.455C302.427,10.327,314.49,0,329.763,0
		c15.273,0,27.336,10.327,37.315,20.74c3.645,3.818,7.203,7.637,10.761,11.455c15.534,16.575,31.935,33.237,54.758,38.791
		c21.49,5.746,44.431,0.482,61.266-14.058c3.014-3.042,7.561-3.972,11.528-2.359C509.357,56.181,511.965,60.022,512,64.304z"/>
	<path style="fill:#805333;" d="M234.305,104.917v297.481l-33.757-29.245c-11.653-10.206-18.329-24.949-18.311-40.439l0-228.404
		c8.839,2.312,17.939,3.478,27.075,3.471C217.725,107.781,226.111,106.82,234.305,104.917z"/>
	<path style="fill:#603E26;" d="M295.051,68.382v386.69l-60.746-52.675V104.917c0.26-0.087,0.434-0.087,0.694-0.174
		C257.969,98.351,278.741,85.773,295.051,68.382z"/>
	<path style="fill:#805333;" d="M364.475,68.469v386.603l-0.955,0.868c-19.334,16.894-48.18,16.894-67.515,0l-0.955-0.868V68.382
		c4.426-4.339,8.418-8.591,11.976-12.409l10.5-11.281c0.087-0.087,0.26-0.174,0.347-0.26c3.109-3.235,7.402-5.064,11.889-5.064
		c4.487,0,8.78,1.829,11.889,5.064c0.155,0.068,0.279,0.192,0.347,0.347c3.471,3.645,6.942,7.376,10.414,11.108
		C355.883,59.618,359.962,64.043,364.475,68.469z"/>
	<path style="fill:#603E26;" d="M425.22,104.917v297.481l-60.746,52.675V68.469c16.318,17.276,37.009,29.811,59.878,36.274
		C424.632,104.842,424.924,104.901,425.22,104.917z"/>
	<g>
		<path style="fill:#805333;" d="M477.288,104.309l0,228.404c0.018,15.49-6.657,30.233-18.311,40.439l-33.757,29.245V104.917
			c8.196,1.894,16.58,2.854,24.993,2.864C459.349,107.787,468.449,106.621,477.288,104.309z"/>
		<path style="fill:#805333;" d="M112.814,381.831H8.678c-4.793,0-8.678-3.885-8.678-8.678c0-4.793,3.885-8.678,8.678-8.678h104.136
			c4.793,0,8.678,3.885,8.678,8.678C121.492,377.945,117.606,381.831,112.814,381.831z"/>
		<path style="fill:#805333;" d="M104.136,512h-86.78c-4.793,0-8.678-3.885-8.678-8.678c0-4.793,3.885-8.678,8.678-8.678h86.78
			c4.793,0,8.678,3.885,8.678,8.678C112.814,508.115,108.928,512,104.136,512z"/>
	</g>
</g>
<g>
</g>
<g>
</g>
<g>
</g>
<g>
</g>
<g>
</g>
<g>
</g>
<g>
</g>
<g>
</g>
<g>
</g>
<g>
</g>
<g>
</g>
<g>
</g>
<g>
</g>
<g>
</g>
<g>
</g>
</svg>
