<?xml version="1.0" encoding="iso-8859-1"?>
<!-- Generator: Adobe Illustrator 19.0.0, SVG Export Plug-In . SVG Version: 6.00 Build 0)  -->
<svg version="1.1" id="Capa_1" xmlns="http://www.w3.org/2000/svg" xmlns:xlink="http://www.w3.org/1999/xlink" x="0px" y="0px"
	 viewBox="0 0 511.974 511.974" style="enable-background:new 0 0 511.974 511.974;" xml:space="preserve">
<g>
	<path style="fill:none;stroke:#000000;stroke-width:2;stroke-linecap:round;stroke-linejoin:round;" d="M223.4,266.152
		c-3.955-12.811-0.041-26.751,10.003-35.632c10.044-8.881,24.358-11.059,36.588-5.566c12.231,5.493,20.112,17.639,20.145,31.046
		c-0.068,18.825-15.311,34.068-34.136,34.136c-3.443,0.011-6.866-0.507-10.152-1.536C235.144,285.24,226.76,276.856,223.4,266.152z"
		/>
	<g>
		<path style="fill:#4482C3;" d="M28.072,289.545C42.84,390.151,121.849,469.16,222.455,483.928h67.09
			c100.606-14.768,179.615-93.777,194.383-194.383v-67.09C469.16,121.849,390.151,42.84,289.545,28.072h-67.09
			C121.849,42.84,42.84,121.849,28.072,222.455V289.545z"/>
		<g>
			<circle style="fill:#F0C419;" cx="256" cy="34.136" r="34.136"/>
			<circle style="fill:#F0C419;" cx="256" cy="477.837" r="34.136"/>
			<circle style="fill:#F0C419;" cx="34.136" cy="256" r="34.136"/>
			<circle style="fill:#F0C419;" cx="477.837" cy="256" r="34.136"/>
			<path style="fill:#F0C419;" d="M162.145,102.25c-3.16,0.006-6.082-1.677-7.662-4.414l-8.527-14.786
				c-2.398-4.218-0.942-9.582,3.26-12.008c4.202-2.426,9.575-1.006,12.029,3.18l8.536,14.786c1.576,2.73,1.577,6.093,0.002,8.824
				S165.297,102.247,162.145,102.25z"/>
			<path style="fill:#F0C419;" d="M358.4,442.191c-3.157,0.003-6.075-1.68-7.654-4.414l-8.536-14.786
				c-2.438-4.224-0.989-9.625,3.235-12.063c4.224-2.438,9.625-0.989,12.063,3.235l8.527,14.786c1.576,2.73,1.577,6.093,0.002,8.824
				C364.463,440.504,361.552,442.188,358.4,442.191z"/>
			<path style="fill:#F0C419;" d="M93.414,170.964c-1.55,0.003-3.073-0.405-4.414-1.183l-14.786-8.536
				c-4.186-2.454-5.607-7.827-3.18-12.029c2.426-4.202,7.79-5.658,12.008-3.26l14.786,8.527c3.469,1.994,5.163,6.072,4.128,9.937
				C100.92,168.285,97.415,170.971,93.414,170.964z"/>
			<path style="fill:#F0C419;" d="M433.355,367.228c-1.55,0.003-3.073-0.405-4.414-1.183l-14.777-8.527
				c-2.733-1.577-4.417-4.492-4.417-7.647c-0.001-3.155,1.682-6.071,4.414-7.649c2.732-1.578,6.098-1.579,8.831-0.002l14.786,8.536
				c3.46,1.998,5.147,6.07,4.113,9.929s-4.531,6.543-8.526,6.543H433.355z"/>
			<path style="fill:#F0C419;" d="M78.645,367.228c-3.995,0-7.492-2.684-8.526-6.543c-1.034-3.859,0.653-7.932,4.113-9.929
				l14.786-8.536c2.733-1.577,6.099-1.576,8.831,0.002c2.732,1.578,4.415,4.494,4.414,7.649c-0.001,3.155-1.685,6.07-4.417,7.647
				l-14.786,8.527C81.718,366.823,80.195,367.231,78.645,367.228z"/>
			<path style="fill:#F0C419;" d="M418.586,170.964c-4.001,0.007-7.507-2.679-8.542-6.544c-1.035-3.865,0.659-7.943,4.128-9.937
				l14.786-8.527c4.218-2.398,9.582-0.942,12.008,3.26c2.426,4.202,1.006,9.575-3.18,12.029L423,169.781
				C421.66,170.559,420.137,170.967,418.586,170.964z"/>
			<path style="fill:#F0C419;" d="M153.6,442.191c-3.152-0.003-6.063-1.687-7.638-4.418c-1.575-2.731-1.574-6.094,0.002-8.824
				l8.527-14.786c1.577-2.733,4.492-4.417,7.647-4.417c3.155-0.001,6.071,1.682,7.649,4.414c1.578,2.732,1.579,6.098,0.002,8.831
				l-8.536,14.786C159.675,440.512,156.757,442.195,153.6,442.191z"/>
			<path style="fill:#F0C419;" d="M349.855,102.25c-3.152-0.003-6.063-1.687-7.638-4.418c-1.575-2.731-1.574-6.094,0.002-8.824
				l8.536-14.786c2.454-4.186,7.827-5.607,12.029-3.18c4.202,2.426,5.658,7.79,3.26,12.008l-8.527,14.786
				C355.937,100.573,353.015,102.256,349.855,102.25z"/>
		</g>
		<circle style="fill:#285680;" cx="256" cy="256" r="187.736"/>
		<circle style="fill:#F9EAB0;" cx="256" cy="256" r="167.724"/>
		<g>
			<path style="fill:#67B9CC;" d="M277.963,222.182l19.324-63.453c0.861-2.829,0.248-5.901-1.633-8.183l-32.839-39.874
				c-1.677-2.037-4.177-3.217-6.815-3.217s-5.138,1.18-6.815,3.217l-32.839,39.874c-1.881,2.282-2.494,5.354-1.633,8.183
				l19.324,63.453c1.131,3.719,4.561,6.26,8.448,6.259h27.03C273.402,228.441,276.832,225.9,277.963,222.182z"/>
			<path style="fill:#67B9CC;" d="M217.476,269.753l-56.664,34.428c-2.096,1.274-3.567,3.362-4.061,5.764l-8.995,43.882
				c-0.594,2.905,0.31,5.913,2.407,8.01c2.096,2.096,5.105,3,8.01,2.407l43.882-8.995c2.402-0.494,4.49-1.965,5.764-4.061
				l34.428-56.664c2.115-3.48,1.575-7.954-1.306-10.831l-12.632-12.632C225.431,268.178,220.956,267.639,217.476,269.753z"/>
		</g>
		<path style="fill:#2C3E50;" d="M366.927,358.691c-2.087,0.005-4.107-0.737-5.694-2.092l-84.93-71.848
			c-2.49-2.013-3.695-5.216-3.149-8.37c0.546-3.155,2.757-5.766,5.779-6.825s6.379-0.399,8.775,1.725l84.913,71.848
			c2.827,2.395,3.857,6.299,2.581,9.777c-1.276,3.478-4.588,5.789-8.292,5.786H366.927z"/>
		<path style="fill:#4482C3;" d="M282.024,278.016c-8.833,10.494-23.096,14.668-36.193,10.593
			c-10.704-3.36-19.088-11.744-22.449-22.449c-3.927-12.803-0.003-26.72,10.034-35.586c10.037-8.866,24.332-11.042,36.553-5.564
			c12.22,5.478,20.107,17.597,20.167,30.989C290.124,264.068,287.249,271.869,282.024,278.016z"/>
	</g>
</g>
<g>
</g>
<g>
</g>
<g>
</g>
<g>
</g>
<g>
</g>
<g>
</g>
<g>
</g>
<g>
</g>
<g>
</g>
<g>
</g>
<g>
</g>
<g>
</g>
<g>
</g>
<g>
</g>
<g>
</g>
</svg>
