<?xml version="1.0" encoding="iso-8859-1"?>
<!-- Generator: Adobe Illustrator 19.0.0, SVG Export Plug-In . SVG Version: 6.00 Build 0)  -->
<svg version="1.1" id="Capa_1" xmlns="http://www.w3.org/2000/svg" xmlns:xlink="http://www.w3.org/1999/xlink" x="0px" y="0px"
	 viewBox="0 0 506.103 506.103" style="enable-background:new 0 0 506.103 506.103;" xml:space="preserve">
<g transform="translate(-1 -1)">
	<path style="fill:#FF5364;" d="M430.61,177.569c0.046,55.582-26.128,107.929-70.621,141.241
		c-9.421,7.048-19.502,13.167-30.102,18.273c-48.001,22.716-103.657,22.716-151.658,0c-10.6-5.106-20.681-11.225-30.102-18.273
		c-66.42-49.815-89.157-139.179-54.622-214.68S210.517-12.609,291.639,5.064S430.61,94.544,430.61,177.569z"/>
	<g>
		<path style="fill:#F0C419;" d="M254.058,45.155c-2.337-0.034-4.575-0.948-6.268-2.56c-1.626-1.683-2.543-3.927-2.56-6.268
			c0.014-1.154,0.254-2.293,0.706-3.354c0.427-1.08,1.056-2.069,1.854-2.913c3.54-3.266,8.995-3.266,12.535,0
			c0.798,0.844,1.427,1.833,1.854,2.913c0.452,1.061,0.692,2.201,0.706,3.354c-0.017,2.34-0.934,4.584-2.56,6.268
			C258.633,44.207,256.395,45.121,254.058,45.155z"/>
		<path style="fill:#F0C419;" d="M254.058,327.532c-2.336-0.038-4.573-0.951-6.268-2.56c-1.626-1.683-2.543-3.927-2.56-6.268
			c0.013-1.157,0.253-2.299,0.706-3.363c0.425-1.079,1.054-2.065,1.854-2.904c3.537-3.275,8.998-3.275,12.535,0
			c0.8,0.839,1.429,1.826,1.854,2.904c0.453,1.064,0.693,2.207,0.706,3.363c-0.017,2.34-0.934,4.584-2.56,6.268
			C258.631,326.581,256.395,327.495,254.058,327.532z"/>
		<path style="fill:#F0C419;" d="M187.852,62.899c-2.045,1.128-4.441,1.444-6.709,0.883c-2.248-0.642-4.164-2.125-5.35-4.14
			c-0.565-1.009-0.928-2.118-1.068-3.266c-0.172-1.147-0.121-2.316,0.15-3.443c1.429-4.603,6.158-7.332,10.858-6.268
			c1.11,0.331,2.146,0.87,3.054,1.589c0.928,0.692,1.708,1.563,2.295,2.56c1.14,2.038,1.456,4.436,0.883,6.7
			C191.318,59.762,189.85,61.684,187.852,62.899z"/>
		<path style="fill:#F0C419;" d="M329.04,307.441c-2.046,1.128-4.441,1.443-6.709,0.883c-2.248-0.642-4.164-2.125-5.349-4.14
			c-0.568-1.008-0.934-2.118-1.077-3.266c-0.56-3.557,1.128-7.092,4.247-8.892c3.119-1.8,7.024-1.494,9.824,0.771
			c0.925,0.695,1.705,1.564,2.295,2.56c1.14,2.038,1.456,4.436,0.883,6.7C332.506,304.303,331.038,306.225,329.04,307.441z"/>
		<path style="fill:#F0C419;" d="M139.388,111.362c-1.204,2.004-3.116,3.485-5.358,4.149c-2.264,0.577-4.663,0.261-6.7-0.883
			c-0.995-0.587-1.864-1.364-2.56-2.286c-2.264-2.8-2.571-6.705-0.771-9.824c1.8-3.119,5.335-4.807,8.892-4.247
			c1.148,0.14,2.257,0.503,3.266,1.068c2.014,1.188,3.495,3.102,4.14,5.35C140.841,106.949,140.516,109.33,139.388,111.362z"/>
		<path style="fill:#F0C419;" d="M383.93,252.551c-1.202,2.006-3.115,3.487-5.358,4.149c-2.264,0.577-4.663,0.261-6.7-0.883
			c-0.995-0.587-1.865-1.364-2.56-2.286c-2.264-2.8-2.571-6.705-0.771-9.824c1.8-3.119,5.335-4.807,8.892-4.247
			c1.148,0.14,2.257,0.503,3.266,1.068c2.015,1.186,3.498,3.101,4.14,5.35C385.383,248.137,385.058,250.519,383.93,252.551z"/>
		<path style="fill:#F0C419;" d="M121.645,177.569c-0.034,2.337-0.948,4.575-2.56,6.268c-1.683,1.626-3.927,2.543-6.268,2.56
			c-1.154-0.014-2.293-0.254-3.354-0.706c-1.08-0.427-2.069-1.056-2.913-1.854c-3.266-3.54-3.266-8.995,0-12.535
			c0.844-0.798,1.833-1.427,2.913-1.854c1.061-0.452,2.201-0.692,3.354-0.706c2.34,0.017,4.584,0.934,6.268,2.56
			C120.696,172.994,121.61,175.232,121.645,177.569z"/>
		<path style="fill:#F0C419;" d="M404.021,177.569c-0.038,2.336-0.951,4.573-2.56,6.268c-1.683,1.626-3.927,2.543-6.268,2.56
			c-1.157-0.013-2.299-0.253-3.363-0.706c-1.079-0.425-2.065-1.054-2.904-1.854c-3.275-3.537-3.275-8.998,0-12.535
			c0.839-0.8,1.826-1.429,2.904-1.854c1.064-0.453,2.207-0.693,3.363-0.706c2.34,0.017,4.584,0.934,6.268,2.56
			C403.07,172.996,403.984,175.233,404.021,177.569z"/>
		<path style="fill:#F0C419;" d="M139.388,243.776c1.128,2.045,1.444,4.441,0.883,6.709c-0.642,2.248-2.125,4.164-4.14,5.35
			c-1.009,0.565-2.118,0.928-3.266,1.068c-1.147,0.172-2.316,0.121-3.443-0.15c-4.603-1.429-7.332-6.158-6.268-10.858
			c0.331-1.11,0.87-2.146,1.589-3.054c0.692-0.927,1.563-1.708,2.56-2.295c2.038-1.14,4.436-1.456,6.7-0.883
			C136.251,240.31,138.173,241.778,139.388,243.776z"/>
		<path style="fill:#F0C419;" d="M383.93,102.588c1.128,2.046,1.443,4.441,0.883,6.709c-0.642,2.248-2.125,4.164-4.14,5.35
			c-1.008,0.568-2.118,0.934-3.266,1.077c-3.557,0.56-7.092-1.128-8.892-4.247c-1.8-3.119-1.494-7.024,0.771-9.824
			c0.695-0.925,1.565-1.705,2.56-2.295c2.038-1.14,4.436-1.456,6.7-0.883C380.792,99.121,382.715,100.59,383.93,102.588z"/>
		<path style="fill:#F0C419;" d="M187.852,292.24c2.005,1.204,3.485,3.116,4.149,5.358c0.577,2.264,0.261,4.663-0.883,6.7
			c-0.587,0.995-1.364,1.865-2.286,2.56c-2.8,2.264-6.705,2.571-9.824,0.771c-3.119-1.8-4.807-5.335-4.247-8.892
			c0.14-1.148,0.503-2.257,1.068-3.266c1.188-2.014,3.102-3.495,5.35-4.14C183.438,290.787,185.819,291.111,187.852,292.24z"/>
		<path style="fill:#F0C419;" d="M329.04,47.698c2.006,1.202,3.487,3.115,4.149,5.358c0.577,2.264,0.261,4.663-0.883,6.7
			c-0.587,0.995-1.364,1.864-2.286,2.56c-2.8,2.264-6.705,2.571-9.824,0.771c-3.119-1.8-4.807-5.335-4.247-8.892
			c0.14-1.148,0.503-2.257,1.068-3.266c1.186-2.015,3.101-3.498,5.35-4.14C324.626,46.245,327.008,46.569,329.04,47.698z"/>
		<path style="fill:#F0C419;" d="M261.915,86.981l22.784,44.5c1.311,2.562,3.788,4.325,6.638,4.723l50.397,7.062
			c3.364,0.472,6.159,2.832,7.188,6.07c1.028,3.238,0.108,6.778-2.368,9.105l-35.999,33.871c-2.163,2.034-3.158,5.02-2.648,7.945
			l8.563,48.137c0.584,3.293-0.743,6.633-3.427,8.628c-2.684,1.995-6.265,2.301-9.249,0.792l-45.7-23.155
			c-2.499-1.259-5.446-1.259-7.945,0l-45.7,23.155c-2.984,1.509-6.565,1.203-9.249-0.792c-2.684-1.995-4.011-5.335-3.427-8.628
			l8.563-48.137c0.51-2.925-0.486-5.91-2.648-7.945l-36.043-33.871c-2.475-2.327-3.396-5.867-2.368-9.105
			c1.028-3.238,3.823-5.598,7.188-6.07l50.397-7.062c2.85-0.398,5.328-2.16,6.638-4.723l22.784-44.5
			c1.525-2.906,4.535-4.726,7.817-4.726C257.38,82.255,260.39,84.075,261.915,86.981z"/>
	</g>
	<path style="fill:#894B9D;" d="M392.334,496.695l-32.344-177.885c-9.421,7.048-19.502,13.167-30.102,18.273
		c-48.001,22.716-103.657,22.716-151.658,0c-10.6-5.106-20.681-11.225-30.102-18.273l-32.344,177.885
		c-0.584,3.21,0.651,6.481,3.21,8.505c2.56,2.024,6.027,2.47,9.016,1.161l39.009-17.09l87.04-38.047l87.04,38.047l39.009,17.09
		c2.989,1.309,6.456,0.862,9.016-1.161C391.683,503.176,392.918,499.906,392.334,496.695z"/>
	<path style="fill:#804169;" d="M254.058,354.121v97.103l-87.04,38.047l-1.236-2.737l12.447-149.451
		C201.919,348.347,227.828,354.168,254.058,354.121z"/>
	<path style="fill:#955BA5;" d="M342.334,486.535l-1.236,2.737l-87.04-38.047v-97.103c26.231,0.047,52.14-5.774,75.829-17.037
		L342.334,486.535z"/>
</g>
<g>
</g>
<g>
</g>
<g>
</g>
<g>
</g>
<g>
</g>
<g>
</g>
<g>
</g>
<g>
</g>
<g>
</g>
<g>
</g>
<g>
</g>
<g>
</g>
<g>
</g>
<g>
</g>
<g>
</g>
</svg>
