<?xml version="1.0" encoding="iso-8859-1"?>
<!-- Generator: Adobe Illustrator 19.0.0, SVG Export Plug-In . SVG Version: 6.00 Build 0)  -->
<svg version="1.1" id="Capa_1" xmlns="http://www.w3.org/2000/svg" xmlns:xlink="http://www.w3.org/1999/xlink" x="0px" y="0px"
	 viewBox="0 0 511.993 511.993" style="enable-background:new 0 0 511.993 511.993;" xml:space="preserve">
<g transform="translate(-1)">
	<path style="fill:#F29C1F;" d="M459.442,188.325c-3.179,3.758-7.782,6.019-12.699,6.237c-4.917,0.218-9.703-1.627-13.201-5.09
		l-55.049-55.049l74.514-74.514l54.36,54.351c6.761,6.476,7.523,17.018,1.765,24.399c-3.18,3.757-7.784,6.016-12.701,6.233
		c-4.917,0.216-9.702-1.63-13.199-5.094l-12.412-12.447c-3.441-3.411-8.988-3.411-12.429,0l-12.447,12.42
		c-3.411,3.441-3.411,8.988,0,12.429l11.723,11.723C464.436,170.397,465.202,180.942,459.442,188.325z"/>
	<path style="fill:#F0C419;" d="M476.409,59.645L277.426,258.619l-37.27-37.27L439.139,22.375
		c4.937-5.114,11.706-8.055,18.814-8.172s13.97,2.597,19.074,7.546c4.95,5.104,7.667,11.967,7.551,19.077
		S481.523,54.705,476.409,59.645z"/>
	<path style="fill:#F29C1F;" d="M196.442,227.802l19.694-19.694c6.88-6.81,17.961-6.81,24.841,0l49.699,49.69
		c6.816,6.881,6.816,17.969,0,24.85l-19.694,19.694L196.442,227.802z"/>
	<path style="fill:#F0C419;" d="M240.969,257.824c-54.896-54.896-143.9-54.896-198.797,0s-54.896,143.9,0,198.796
		s143.9,54.896,198.797,0c26.367-26.36,41.18-62.115,41.18-99.399S267.335,284.184,240.969,257.824z M79.512,419.281
		c-25.118-25.118-32.632-62.893-19.038-95.712s45.618-54.216,81.14-54.216s67.547,21.398,81.14,54.216s6.08,70.594-19.038,95.712
		c-16.461,16.488-38.804,25.753-62.102,25.753S95.973,435.769,79.512,419.281z"/>
	<path style="fill:#F29C1F;" d="M216.516,282.277c-30.296-30.298-75.859-39.362-115.443-22.966s-65.395,55.022-65.395,97.868
		s25.81,81.473,65.395,97.868c39.585,16.396,85.148,7.331,115.443-22.966c19.88-19.858,31.05-46.804,31.05-74.902
		C247.566,329.08,236.396,302.135,216.516,282.277z M203.716,419.281c-25.118,25.118-62.893,32.632-95.712,19.038
		c-32.818-13.594-54.216-45.618-54.216-81.14s21.398-67.547,54.216-81.14c32.818-13.594,70.594-6.08,95.712,19.038
		c16.488,16.461,25.753,38.804,25.753,62.102C229.469,380.477,220.204,402.82,203.716,419.281z"/>
</g>
<g>
</g>
<g>
</g>
<g>
</g>
<g>
</g>
<g>
</g>
<g>
</g>
<g>
</g>
<g>
</g>
<g>
</g>
<g>
</g>
<g>
</g>
<g>
</g>
<g>
</g>
<g>
</g>
<g>
</g>
</svg>
