<?xml version="1.0" encoding="iso-8859-1"?>
<!-- Generator: Adobe Illustrator 19.0.0, SVG Export Plug-In . SVG Version: 6.00 Build 0)  -->
<svg version="1.1" id="Capa_1" xmlns="http://www.w3.org/2000/svg" xmlns:xlink="http://www.w3.org/1999/xlink" x="0px" y="0px"
	 viewBox="0 0 512 512" style="enable-background:new 0 0 512 512;" xml:space="preserve">
<g>
	<path style="fill:#B0D3F0;" d="M388.414,167.724V52.966H123.586v114.759c0,48.755,30.694,88.276,79.448,88.276
		c-48.755,0-79.448,39.521-79.448,88.276v114.759h264.828V344.276c0-48.755-30.694-88.276-79.448-88.276
		C357.72,256,388.414,216.479,388.414,167.724z"/>
	<path style="fill:#90BAE1;" d="M203.034,256c-48.755,0-79.448,39.521-79.448,88.276v97.103h264.828v-97.103
		c0-48.755-30.694-88.276-79.448-88.276H203.034z"/>
	<path style="fill:#F29C1F;" d="M123.586,0h264.828c19.501,0,35.31,15.809,35.31,35.31l0,0c0,19.501-15.809,35.31-35.31,35.31
		H123.586c-19.501,0-35.31-15.809-35.31-35.31l0,0C88.276,15.809,104.085,0,123.586,0z"/>
	<g>
		<path style="fill:#285680;" d="M353.103,158.897v8.828c0,29.252-23.713,52.966-52.966,52.966
			c-14.626,0-26.483,11.857-26.483,26.483v35.31c0.215,8.882-5.941,16.652-14.636,18.476c-5.132,0.875-10.389-0.554-14.372-3.906
			c-3.983-3.352-6.288-8.288-6.303-13.494v-36.387c0-14.626-11.857-26.483-26.483-26.483c-29.252,0-52.966-23.713-52.966-52.966
			v-8.828c0-9.751,7.904-17.655,17.655-17.655h158.897C345.199,141.241,353.103,149.146,353.103,158.897z"/>
		<path style="fill:#285680;" d="M326.621,361.931h-44.138c0-14.626-11.857-26.483-26.483-26.483
			c-14.626,0-26.483,11.857-26.483,26.483h-35.31c-19.501,0-35.31,15.809-35.31,35.31v61.793h203.034v-61.793
			C361.931,377.74,346.122,361.931,326.621,361.931z"/>
	</g>
	<path style="fill:#F29C1F;" d="M123.586,441.379h264.828c19.501,0,35.31,15.809,35.31,35.31l0,0c0,19.501-15.809,35.31-35.31,35.31
		H123.586c-19.501,0-35.31-15.809-35.31-35.31l0,0C88.276,457.188,104.085,441.379,123.586,441.379z"/>
</g>
<g>
</g>
<g>
</g>
<g>
</g>
<g>
</g>
<g>
</g>
<g>
</g>
<g>
</g>
<g>
</g>
<g>
</g>
<g>
</g>
<g>
</g>
<g>
</g>
<g>
</g>
<g>
</g>
<g>
</g>
</svg>
