<?xml version="1.0" encoding="iso-8859-1"?>
<!-- Generator: Adobe Illustrator 19.0.0, SVG Export Plug-In . SVG Version: 6.00 Build 0)  -->
<svg version="1.1" id="Capa_1" xmlns="http://www.w3.org/2000/svg" xmlns:xlink="http://www.w3.org/1999/xlink" x="0px" y="0px"
	 viewBox="0 0 512 512" style="enable-background:new 0 0 512 512;" xml:space="preserve">
<g>
	<path style="fill:#F4CD1E;" d="M237.714,45.714h36.571c90.89,0,164.571,73.681,164.571,164.571v201.143H73.143V210.286
		C73.143,119.395,146.824,45.714,237.714,45.714z"/>
	<path id="SVGCleanerId_0" style="fill:#EC9130;" d="M64,411.429h384c20.198,0,36.571,16.374,36.571,36.571v18.286H27.429V448
		C27.429,427.802,43.802,411.429,64,411.429z"/>
	<path style="fill:#F6DB6D;" d="M256,0L256,0c20.198,0,36.571,16.374,36.571,36.571v18.286h-73.143V36.571
		C219.429,16.374,235.802,0,256,0z"/>
	<path style="fill:#DC6C33;" d="M201.143,457.143C201.143,487.44,225.703,512,256,512c30.297,0,54.857-24.56,54.857-54.857"/>
	<path style="fill:#F4CD1E;" d="M237.714,45.714h36.571c90.89,0,164.571,73.681,164.571,164.571v211.429H73.143V210.286
		C73.143,119.395,146.824,45.714,237.714,45.714z"/>
	<g>
		<path id="SVGCleanerId_0_1_" style="fill:#EC9130;" d="M64,411.429h384c20.198,0,36.571,16.374,36.571,36.571v18.286H27.429V448
			C27.429,427.802,43.802,411.429,64,411.429z"/>
	</g>
	<rect x="73.143" y="301.714" style="fill:#F6AB27;" width="365.714" height="64"/>
</g>
<g>
</g>
<g>
</g>
<g>
</g>
<g>
</g>
<g>
</g>
<g>
</g>
<g>
</g>
<g>
</g>
<g>
</g>
<g>
</g>
<g>
</g>
<g>
</g>
<g>
</g>
<g>
</g>
<g>
</g>
</svg>
