<?xml version="1.0" encoding="iso-8859-1"?>
<!-- Generator: Adobe Illustrator 19.0.0, SVG Export Plug-In . SVG Version: 6.00 Build 0)  -->
<svg version="1.1" id="Layer_1" xmlns="http://www.w3.org/2000/svg" xmlns:xlink="http://www.w3.org/1999/xlink" x="0px" y="0px"
	 viewBox="0 0 512.002 512.002" style="enable-background:new 0 0 512.002 512.002;" xml:space="preserve">
<g>
	<path style="fill:#CE7E14;" d="M475.712,327.698l-59.189-37.102c-8.925-4.864-14.875-14.221-14.875-24.382v-27.869
		c0,0,25.98-23.87,33.598-57.053c6.321-4.078,10.54-11.149,10.54-19.182V131.61c0-6.709-4.184-12.703-8.828-16.896V70.621
		c0,0-3.858-70.621-88.276-70.621c-40.766,0-62.641,16.481-74.47,33.51c32.662,34.322,35.178,82.662,35.178,82.662
		c1.607,82.679,55.958,162.454,73.719,186.368c1.315,1.774,1.174,4.299-0.503,5.747c-18.767,16.234-60.301,18.335-60.301,18.335
		h-72.404c-6.462,0-8.775,9.966-5.959,15.89c3.081,6.453,5.782,13.286,11.326,16.057l58.006,21.981
		c14.195,5.385,26.474,14.274,35.999,25.521h158.305v-24.691C507.579,359,495.362,338.414,475.712,327.698"/>
	<path style="fill:#9B5F10;" d="M475.72,327.698l-59.18-37.102c-8.934-4.864-14.883-14.221-14.883-24.382v-27.869
		c0,0,25.988-23.87,33.598-57.053c6.321-4.078,10.54-11.149,10.54-19.182V131.61c0-6.709-4.184-12.703-8.828-16.896V70.621
		c0,0-3.858-70.621-88.276-70.621c-4.758,0-9.207,0.265-13.462,0.697c71.715,6.877,75.264,69.923,75.264,69.923v44.094
		c4.652,4.193,8.828,10.187,8.828,16.896v30.499c0,8.033-4.22,15.104-10.54,19.182c-7.609,33.183-33.598,57.053-33.598,57.053
		v27.869c0,10.161,5.959,19.518,14.883,24.382l59.18,37.102c19.65,10.717,31.868,31.303,31.868,53.681v24.691h26.474v-24.691
		C507.587,359,495.37,338.414,475.72,327.698"/>
	<path style="fill:#F29C1F;" d="M376.806,443.094c-6.674-28.663-27.18-52.109-54.687-62.543l-58.006-21.99
		c-5.553-2.772-8.254-9.604-11.335-16.057c-2.816-5.914-0.494-15.881,5.959-15.881h72.404c0,0,41.543-2.101,60.31-18.335
		c1.668-1.448,1.81-3.972,0.503-5.747c-17.77-23.914-72.121-103.689-73.728-186.368c0,0-5.906-115.235-119.605-116.171
		C84.931,0.937,79.017,116.173,79.017,116.173c-1.598,82.626-55.879,162.339-73.684,186.315c-1.333,1.801-1.183,4.37,0.521,5.835
		c18.785,16.199,60.257,18.3,60.257,18.3h72.404c6.444,0,8.845,9.86,5.95,15.881c-3.09,6.444-5.782,13.285-11.335,16.057
		l-57.997,21.99c-27.507,10.434-48.013,33.88-54.687,62.543L4.415,512.002h194.207h194.207L376.806,443.094z"/>
	<g>
		<path style="fill:#B67517;" d="M376.806,443.094c-6.674-28.663-27.18-52.109-54.687-62.543l-58.006-21.99
			c-5.553-2.772-8.254-9.604-11.335-16.057c-2.816-5.914-0.494-15.881,5.959-15.881h-26.483c-6.453,0-8.775,9.966-5.959,15.881
			c3.081,6.453,5.782,13.285,11.335,16.057l58.006,21.99c27.507,10.434,48.013,33.88,54.687,62.543l16.022,68.908h26.483
			L376.806,443.094z"/>
		<path style="fill:#B67517;" d="M291.746,116.172c1.607,82.679,55.958,162.454,73.728,186.368c1.307,1.774,1.156,4.299-0.503,5.747
			c-18.767,16.234-60.31,18.335-60.31,18.335h26.483c0,0,41.543-2.101,60.31-18.335c1.66-1.448,1.81-3.972,0.503-5.747
			c-17.77-23.914-72.121-103.689-73.728-186.368c0,0-5.906-115.235-119.605-116.171c-4.608,0.035-8.978,0.327-13.241,0.724
			C286.246,10.153,291.746,116.172,291.746,116.172"/>
	</g>
	<g>
		<path style="fill:#F5B04C;" d="M20.444,443.094c6.674-28.663,27.18-52.109,54.687-62.543l58.006-21.99
			c5.553-2.772,8.254-9.604,11.335-16.057c2.816-5.914,0.494-15.881-5.959-15.881h26.483c6.453,0,8.775,9.966,5.959,15.881
			c-3.081,6.453-5.782,13.285-11.335,16.057l-58.006,21.99c-27.507,10.434-48.013,33.88-54.687,62.543l-16.022,68.908H4.422
			L20.444,443.094z"/>
		<path style="fill:#F5B04C;" d="M105.505,116.172c-1.607,82.679-55.958,162.454-73.728,186.368
			c-1.306,1.774-1.156,4.299,0.503,5.738c18.767,16.243,60.31,18.344,60.31,18.344H66.107c0,0-41.543-2.101-60.31-18.344
			c-1.66-1.439-1.81-3.964-0.503-5.738c17.77-23.914,72.121-103.689,73.728-186.368c0,0,5.906-115.235,119.605-116.171
			c4.608,0.035,8.978,0.327,13.241,0.724C111.004,10.153,105.505,116.172,105.505,116.172"/>
	</g>
</g>
<g>
</g>
<g>
</g>
<g>
</g>
<g>
</g>
<g>
</g>
<g>
</g>
<g>
</g>
<g>
</g>
<g>
</g>
<g>
</g>
<g>
</g>
<g>
</g>
<g>
</g>
<g>
</g>
<g>
</g>
</svg>
