<?xml version="1.0" encoding="iso-8859-1"?>
<!-- Generator: Adobe Illustrator 19.0.0, SVG Export Plug-In . SVG Version: 6.00 Build 0)  -->
<svg version="1.1" id="Capa_1" xmlns="http://www.w3.org/2000/svg" xmlns:xlink="http://www.w3.org/1999/xlink" x="0px" y="0px"
	 viewBox="0 0 512 512" style="enable-background:new 0 0 512 512;" xml:space="preserve">
<g>
	<circle style="fill:#B19046;" cx="256" cy="256" r="256"/>
	<path style="fill:#F3D55B;" d="M512,256c0,141.383-114.617-8.828-256-8.828S0,397.383,0,256C0,114.615,114.615,0,256,0
		S512,114.615,512,256z"/>
	<circle style="fill:#F0C419;" cx="256" cy="256" r="238.345"/>
	<circle style="fill:#E57E25;" cx="256" cy="256" r="203.034"/>
	<path style="fill:#805333;" d="M441.379,256c0.024,43.939-15.626,86.446-44.138,119.879c-4.672,5.627-9.747,10.908-15.183,15.801
		c-8.866,8.334-18.569,15.73-28.954,22.069c-5.366,3.403-10.938,6.469-16.684,9.181c-8.841,4.31-18.024,7.883-27.454,10.681
		c-5.712,1.763-11.518,3.207-17.39,4.326c-8.823,1.731-17.764,2.794-26.748,3.178c-2.913,0.177-5.826,0.265-8.828,0.265
		c-3.001,0-5.914-0.088-8.828-0.265c-8.983-0.384-17.924-1.447-26.748-3.178c-5.872-1.119-11.678-2.563-17.39-4.326
		c-9.43-2.798-18.612-6.371-27.454-10.681c-5.746-2.712-11.318-5.778-16.684-9.181c-10.386-6.339-20.089-13.735-28.954-22.069
		c-5.437-4.893-10.511-10.174-15.183-15.801c-58.849-69.086-58.849-170.672,0-239.757c4.672-5.627,9.747-10.908,15.183-15.801
		c8.866-8.334,18.569-15.73,28.954-22.069c5.366-3.403,10.938-6.469,16.684-9.181c8.841-4.31,18.024-7.883,27.454-10.681
		c5.712-1.763,11.518-3.207,17.39-4.326c8.823-1.731,17.764-2.794,26.748-3.178c2.913-0.177,5.826-0.265,8.828-0.265
		c3.001,0,5.914,0.088,8.828,0.265c8.983,0.384,17.924,1.447,26.748,3.178c5.872,1.119,11.678,2.563,17.39,4.326
		c9.43,2.798,18.612,6.371,27.454,10.681c5.746,2.712,11.318,5.778,16.684,9.181c10.386,6.339,20.089,13.735,28.954,22.069
		c5.437,4.893,10.511,10.174,15.183,15.801C425.753,169.554,441.404,212.061,441.379,256z"/>
	<circle style="fill:#A5A5A4;" cx="256" cy="256" r="52.966"/>
	<circle style="fill:#BDC3C7;" cx="256" cy="256" r="35.31"/>
	<path style="fill:#FFFFFF;" d="M273.655,264.828c-4.875,0-8.828-3.952-8.828-8.828s-3.952-8.828-8.828-8.828
		s-8.828-3.952-8.828-8.828c0-4.875,3.952-8.828,8.828-8.828c14.626,0,26.483,11.857,26.483,26.483
		C282.483,260.875,278.531,264.828,273.655,264.828z"/>
	<g>
		<path style="fill:#E57E25;" d="M256,44.138c-2.341-0.014-4.586-0.931-6.268-2.56c-0.38-0.419-0.733-0.862-1.059-1.324
			c-0.334-0.492-0.602-1.026-0.794-1.589c-0.255-0.5-0.434-1.036-0.53-1.589c-0.098-0.584-0.157-1.174-0.177-1.766
			c0.019-0.592,0.078-1.182,0.177-1.766c0.096-0.553,0.275-1.089,0.53-1.589c0.193-0.563,0.46-1.097,0.794-1.589
			c0.326-0.463,0.68-0.905,1.059-1.324c3.54-3.266,8.995-3.266,12.535,0c0.38,0.419,0.733,0.862,1.059,1.324
			c0.331,0.494,0.598,1.028,0.794,1.589c0.257,0.499,0.432,1.035,0.521,1.589c0.105,0.583,0.167,1.173,0.185,1.766
			c-0.018,0.592-0.08,1.182-0.185,1.766c-0.088,0.554-0.264,1.09-0.521,1.589c-0.197,0.561-0.464,1.095-0.794,1.589
			c-0.326,0.463-0.68,0.905-1.059,1.324C260.575,43.19,258.337,44.104,256,44.138z"/>
		<path style="fill:#E57E25;" d="M106.187,106.187c-1.661,1.655-3.897,2.604-6.241,2.648c-0.565-0.028-1.128-0.09-1.686-0.185
			c-0.585-0.111-1.152-0.301-1.686-0.565c-0.533-0.173-1.039-0.423-1.501-0.742c-0.479-0.348-0.936-0.725-1.368-1.13
			c-0.404-0.433-0.781-0.89-1.13-1.368c-0.317-0.463-0.566-0.968-0.742-1.501c-0.259-0.536-0.449-1.102-0.565-1.686
			c-0.096-0.558-0.158-1.121-0.185-1.686c0.21-4.785,4.042-8.617,8.828-8.828c0.565,0.028,1.128,0.09,1.686,0.185
			c0.583,0.117,1.15,0.307,1.686,0.565c0.533,0.173,1.036,0.426,1.492,0.75c0.485,0.341,0.945,0.715,1.377,1.121
			c0.406,0.432,0.781,0.892,1.121,1.377c0.326,0.455,0.579,0.959,0.75,1.492c0.26,0.535,0.45,1.102,0.565,1.686
			c0.096,0.558,0.158,1.121,0.185,1.686C108.714,102.318,107.791,104.523,106.187,106.187z"/>
		<path style="fill:#E57E25;" d="M44.138,256c-0.014,2.341-0.931,4.586-2.56,6.268c-0.419,0.38-0.862,0.733-1.324,1.059
			c-0.492,0.334-1.026,0.602-1.589,0.794c-0.5,0.255-1.036,0.434-1.589,0.53c-0.584,0.098-1.174,0.157-1.766,0.177
			c-0.592-0.019-1.182-0.078-1.766-0.177c-0.553-0.096-1.089-0.275-1.589-0.53c-0.563-0.193-1.097-0.46-1.589-0.794
			c-0.463-0.326-0.905-0.68-1.324-1.059c-3.266-3.54-3.266-8.995,0-12.535c0.419-0.38,0.862-0.733,1.324-1.059
			c0.494-0.331,1.028-0.598,1.589-0.794c0.499-0.257,1.035-0.432,1.589-0.521c0.583-0.105,1.173-0.167,1.766-0.185
			c0.592,0.018,1.182,0.08,1.766,0.185c0.554,0.088,1.09,0.264,1.589,0.521c0.561,0.197,1.095,0.464,1.589,0.794
			c0.463,0.326,0.905,0.68,1.324,1.059C43.19,251.425,44.104,253.663,44.138,256z"/>
		<path style="fill:#E57E25;" d="M106.187,405.813c1.655,1.661,2.604,3.897,2.648,6.241c-0.028,0.565-0.09,1.128-0.185,1.686
			c-0.111,0.585-0.301,1.152-0.565,1.686c-0.173,0.533-0.423,1.039-0.742,1.501c-0.348,0.479-0.725,0.936-1.13,1.368
			c-0.433,0.404-0.89,0.781-1.368,1.13c-0.463,0.317-0.968,0.566-1.501,0.742c-0.536,0.259-1.102,0.449-1.686,0.565
			c-0.558,0.096-1.121,0.158-1.686,0.185c-4.785-0.21-8.617-4.042-8.828-8.828c0.028-0.565,0.09-1.128,0.185-1.686
			c0.089-0.579,0.249-1.146,0.477-1.686c0.173-0.533,0.426-1.036,0.75-1.492c0.341-0.485,0.715-0.945,1.121-1.377
			c0.432-0.406,0.892-0.781,1.377-1.121c0.455-0.326,0.959-0.579,1.492-0.75c0.535-0.26,1.102-0.45,1.686-0.565
			c0.558-0.096,1.121-0.158,1.686-0.185C102.261,403.264,104.5,404.189,106.187,405.813z"/>
		<path style="fill:#E57E25;" d="M256,467.862c2.341,0.014,4.586,0.931,6.268,2.56c0.38,0.419,0.733,0.862,1.059,1.324
			c0.334,0.492,0.602,1.026,0.794,1.589c0.255,0.5,0.434,1.036,0.53,1.589c0.235,1.165,0.235,2.366,0,3.531
			c-0.096,0.553-0.275,1.089-0.53,1.589c-0.193,0.563-0.46,1.097-0.794,1.589c-0.326,0.462-0.68,0.905-1.059,1.324
			c-3.54,3.266-8.995,3.266-12.535,0c-0.38-0.419-0.733-0.862-1.059-1.324c-0.331-0.494-0.598-1.028-0.794-1.589
			c-0.257-0.499-0.432-1.035-0.521-1.589c-0.247-1.164-0.247-2.367,0-3.531c0.088-0.554,0.264-1.09,0.521-1.589
			c0.197-0.561,0.464-1.095,0.794-1.589c0.326-0.462,0.68-0.905,1.059-1.324C251.425,468.81,253.663,467.896,256,467.862z"/>
		<path style="fill:#E57E25;" d="M405.813,405.813c1.661-1.655,3.897-2.604,6.241-2.648c0.565,0.028,1.128,0.09,1.686,0.185
			c0.585,0.111,1.152,0.301,1.686,0.565c0.533,0.173,1.039,0.423,1.501,0.742c0.479,0.348,0.936,0.725,1.368,1.13
			c0.404,0.433,0.781,0.89,1.13,1.368c0.317,0.463,0.566,0.968,0.742,1.501c0.259,0.536,0.449,1.102,0.565,1.686
			c0.096,0.558,0.158,1.121,0.185,1.686c-0.21,4.785-4.042,8.617-8.828,8.828c-0.565-0.028-1.128-0.09-1.686-0.185
			c-0.579-0.089-1.146-0.249-1.686-0.477c-0.533-0.173-1.036-0.426-1.492-0.75c-0.485-0.341-0.945-0.715-1.377-1.121
			c-0.406-0.432-0.781-0.892-1.121-1.377c-0.326-0.455-0.579-0.959-0.75-1.492c-0.26-0.535-0.45-1.102-0.565-1.686
			c-0.096-0.558-0.158-1.121-0.185-1.686C403.264,409.739,404.189,407.5,405.813,405.813z"/>
		<path style="fill:#E57E25;" d="M467.862,256c0.014-2.341,0.931-4.586,2.56-6.268c0.419-0.38,0.862-0.733,1.324-1.059
			c0.492-0.334,1.026-0.602,1.589-0.794c0.5-0.255,1.036-0.434,1.589-0.53c1.165-0.235,2.366-0.235,3.531,0
			c0.553,0.096,1.089,0.275,1.589,0.53c0.563,0.193,1.097,0.46,1.589,0.794c0.462,0.326,0.905,0.68,1.324,1.059
			c3.266,3.54,3.266,8.995,0,12.535c-0.419,0.38-0.862,0.733-1.324,1.059c-0.494,0.331-1.028,0.598-1.589,0.794
			c-0.499,0.257-1.035,0.432-1.589,0.521c-1.164,0.247-2.367,0.247-3.531,0c-0.554-0.088-1.09-0.264-1.589-0.521
			c-0.561-0.197-1.095-0.464-1.589-0.794c-0.462-0.326-0.905-0.68-1.324-1.059C468.81,260.575,467.896,258.337,467.862,256z"/>
		<path style="fill:#E57E25;" d="M405.813,106.187c-1.655-1.661-2.604-3.897-2.648-6.241c0.028-0.565,0.09-1.128,0.185-1.686
			c0.111-0.585,0.301-1.152,0.565-1.686c0.173-0.533,0.423-1.039,0.742-1.501c0.348-0.479,0.725-0.936,1.13-1.368
			c0.433-0.404,0.89-0.781,1.368-1.13c0.463-0.317,0.968-0.566,1.501-0.742c0.536-0.259,1.102-0.449,1.686-0.565
			c0.558-0.096,1.121-0.158,1.686-0.185c4.785,0.21,8.617,4.042,8.828,8.828c-0.028,0.565-0.09,1.128-0.185,1.686
			c-0.117,0.583-0.307,1.15-0.565,1.686c-0.173,0.533-0.426,1.036-0.75,1.492c-0.341,0.485-0.715,0.945-1.121,1.377
			c-0.432,0.406-0.892,0.781-1.377,1.121c-0.455,0.326-0.958,0.579-1.492,0.75c-0.535,0.26-1.102,0.45-1.686,0.565
			c-0.558,0.096-1.121,0.158-1.686,0.185C409.682,108.714,407.477,107.791,405.813,106.187z"/>
	</g>
	<g>
		<path style="fill:#482F1C;" d="M132.414,126.499v103.018c0,4.875-3.952,8.828-8.828,8.828c-4.875,0-8.828-3.952-8.828-8.828
			v-93.396c4.672-5.627,9.747-10.908,15.183-15.801C131.52,121.991,132.404,124.201,132.414,126.499z"/>
		<path style="fill:#482F1C;" d="M132.414,264.828v120.673c-0.01,2.299-0.893,4.508-2.472,6.179
			c-5.437-4.893-10.511-10.174-15.183-15.801V264.828c0-4.875,3.952-8.828,8.828-8.828C128.462,256,132.414,259.952,132.414,264.828
			z"/>
		<path style="fill:#482F1C;" d="M176.552,317.793v101.164c-0.008,1.382-0.341,2.743-0.971,3.972
			c-5.746-2.712-11.318-5.778-16.684-9.181v-95.956c0-4.875,3.952-8.828,8.828-8.828S176.552,312.918,176.552,317.793z"/>
		<path style="fill:#482F1C;" d="M176.552,93.043v189.44c0,4.875-3.952,8.828-8.828,8.828s-8.828-3.952-8.828-8.828V98.251
			c5.366-3.403,10.938-6.469,16.684-9.181C176.211,90.3,176.543,91.661,176.552,93.043z"/>
		<path style="fill:#482F1C;" d="M220.69,76.006v100.546c0,4.875-3.952,8.828-8.828,8.828c-4.875,0-8.828-3.952-8.828-8.828V78.389
			c5.712-1.763,11.518-3.207,17.39-4.326C220.605,74.695,220.694,75.349,220.69,76.006z"/>
		<path style="fill:#482F1C;" d="M220.69,335.448v100.546c0.005,0.657-0.084,1.311-0.265,1.942
			c-5.872-1.119-11.678-2.563-17.39-4.326v-98.163c0-4.875,3.952-8.828,8.828-8.828C216.737,326.621,220.69,330.573,220.69,335.448z
			"/>
		<path style="fill:#482F1C;" d="M397.241,282.483v93.396c-4.672,5.627-9.747,10.908-15.183,15.801
			c-1.578-1.671-2.462-3.88-2.472-6.179V282.483c0-4.875,3.952-8.828,8.828-8.828S397.241,277.607,397.241,282.483z"/>
		<path style="fill:#482F1C;" d="M397.241,136.121v111.051c0,4.875-3.952,8.828-8.828,8.828s-8.828-3.952-8.828-8.828V126.499
			c0.01-2.299,0.893-4.508,2.472-6.179C387.494,125.213,392.569,130.494,397.241,136.121z"/>
		<path style="fill:#482F1C;" d="M353.103,98.251v95.956c0,4.875-3.952,8.828-8.828,8.828s-8.828-3.952-8.828-8.828V93.043
			c0.008-1.382,0.341-2.743,0.971-3.972C342.165,91.782,347.738,94.848,353.103,98.251z"/>
		<path style="fill:#482F1C;" d="M353.103,229.517v184.232c-5.366,3.403-10.938,6.469-16.684,9.181
			c-0.63-1.23-0.963-2.591-0.971-3.972v-189.44c0-4.875,3.952-8.828,8.828-8.828S353.103,224.642,353.103,229.517z"/>
		<path style="fill:#482F1C;" d="M308.966,78.389v98.163c0,4.875-3.952,8.828-8.828,8.828s-8.828-3.952-8.828-8.828V76.006
			c-0.005-0.657,0.084-1.311,0.265-1.942C297.448,75.182,303.253,76.626,308.966,78.389z"/>
		<path style="fill:#482F1C;" d="M308.966,335.448v98.163c-5.712,1.763-11.518,3.207-17.39,4.326
			c-0.18-0.631-0.27-1.285-0.265-1.942V335.448c0-4.875,3.952-8.828,8.828-8.828S308.966,330.573,308.966,335.448z"/>
		<path style="fill:#482F1C;" d="M264.828,70.886v88.011c0,4.875-3.952,8.828-8.828,8.828s-8.828-3.952-8.828-8.828V70.886
			c2.913-0.177,5.826-0.265,8.828-0.265C259.001,70.621,261.914,70.709,264.828,70.886z"/>
		<path style="fill:#482F1C;" d="M264.828,353.103v88.011c-2.913,0.177-5.826,0.265-8.828,0.265c-3.001,0-5.914-0.088-8.828-0.265
			v-88.011c0-4.875,3.952-8.828,8.828-8.828S264.828,348.228,264.828,353.103z"/>
	</g>
</g>
<g>
</g>
<g>
</g>
<g>
</g>
<g>
</g>
<g>
</g>
<g>
</g>
<g>
</g>
<g>
</g>
<g>
</g>
<g>
</g>
<g>
</g>
<g>
</g>
<g>
</g>
<g>
</g>
<g>
</g>
</svg>
