<?xml version="1.0" encoding="iso-8859-1"?>
<!-- Generator: Adobe Illustrator 19.0.0, SVG Export Plug-In . SVG Version: 6.00 Build 0)  -->
<svg version="1.1" id="Capa_1" xmlns="http://www.w3.org/2000/svg" xmlns:xlink="http://www.w3.org/1999/xlink" x="0px" y="0px"
	 viewBox="0 0 512.033 512.033" style="enable-background:new 0 0 512.033 512.033;" xml:space="preserve">
<g transform="translate(0 -1)">
	<path style="fill:#C03A2B;" d="M494.36,134.329v61.793c-1.447,46.588-14.364,92.1-37.605,132.502
		c-35.134,69.208-125.44,138.328-200.739,184.408c-75.299-46.08-165.605-115.2-200.739-184.408
		c-23.242-40.402-36.159-85.914-37.606-132.502v-61.793H494.36z"/>
	<path style="fill:#802D40;" d="M494.36,134.329v61.793c-1.447,46.588-14.364,92.1-37.605,132.502
		c-35.134,69.208-125.44,138.328-200.739,184.408V134.329H494.36z"/>
	<path style="fill:#FF5364;" d="M256.015,41.507c50.176-54.996,150.528-51.218,200.713-5.164s50.176,138.293,0,230.479
		c-35.125,69.182-125.449,138.319-200.713,184.417C180.751,405.142,90.427,336.004,55.302,266.858
		c-50.176-92.186-50.176-184.382,0-230.515S205.839-13.488,256.015,41.507z"/>
	<g>
		
			<ellipse transform="matrix(-0.7475 -0.6642 0.6642 -0.7475 126.6592 283.5812)" style="fill:#FB7B76;" cx="117.224" cy="117.719" rx="40.784" ry="53.054"/>
		
			<ellipse transform="matrix(-0.5 -0.866 0.866 -0.5 -9.8367 457.7231)" style="fill:#FB7B76;" cx="127.215" cy="231.701" rx="26.836" ry="20.083"/>
	</g>
</g>
<g>
</g>
<g>
</g>
<g>
</g>
<g>
</g>
<g>
</g>
<g>
</g>
<g>
</g>
<g>
</g>
<g>
</g>
<g>
</g>
<g>
</g>
<g>
</g>
<g>
</g>
<g>
</g>
<g>
</g>
</svg>
