<?xml version="1.0" encoding="iso-8859-1"?>
<!-- Generator: Adobe Illustrator 19.0.0, SVG Export Plug-In . SVG Version: 6.00 Build 0)  -->
<svg version="1.1" id="Capa_1" xmlns="http://www.w3.org/2000/svg" xmlns:xlink="http://www.w3.org/1999/xlink" x="0px" y="0px"
	 viewBox="0 0 511.912 511.912" style="enable-background:new 0 0 511.912 511.912;" xml:space="preserve">
<g>
	<polygon style="fill:#FF5364;" points="441.335,44.138 326.577,0 185.335,0 70.577,44.138 17.611,88.276 17.611,167.724 
		255.956,511.912 494.301,167.724 494.301,88.276 	"/>
	<polygon style="fill:#FB7B76;" points="494.301,88.276 494.301,167.724 441.335,114.759 440.541,112.728 441.335,112.375 
		441.335,44.138 	"/>
	<polygon style="fill:#E64C3C;" points="494.301,167.724 344.232,229.517 326.577,158.897 440.541,112.728 441.335,114.759 	"/>
	<polygon style="fill:#C03A2B;" points="494.301,167.724 255.956,511.912 344.232,229.517 	"/>
	<polygon style="fill:#E64C3C;" points="344.232,229.517 255.956,511.912 167.68,229.517 	"/>
	<g>
		<polygon style="fill:#C03A2B;" points="255.956,511.912 17.611,167.724 167.68,229.517 		"/>
		<polygon style="fill:#C03A2B;" points="344.232,229.517 167.68,229.517 185.335,158.897 326.577,158.897 		"/>
	</g>
	<polygon style="fill:#E64C3C;" points="185.335,158.897 167.68,229.517 17.611,167.724 70.577,114.759 71.371,112.728 	"/>
	<g>
		<polygon style="fill:#FB7B76;" points="71.371,112.728 70.577,114.759 17.611,167.724 17.611,88.276 70.577,44.138 
			70.577,112.375 		"/>
		<path style="fill:#FB7B76;" d="M335.404,44.138h-26.483c-4.875,0-8.828-3.952-8.828-8.828s3.952-8.828,8.828-8.828h26.483
			c4.875,0,8.828,3.952,8.828,8.828S340.279,44.138,335.404,44.138z"/>
		<path style="fill:#FB7B76;" d="M273.611,44.138h-97.103c-4.875,0-8.828-3.952-8.828-8.828s3.952-8.828,8.828-8.828h97.103
			c4.875,0,8.828,3.952,8.828,8.828S278.486,44.138,273.611,44.138z"/>
		<path style="fill:#FB7B76;" d="M335.404,114.759h-70.621c-4.875,0-8.828-3.952-8.828-8.828c0-4.875,3.952-8.828,8.828-8.828
			h70.621c4.875,0,8.828,3.952,8.828,8.828C344.232,110.806,340.279,114.759,335.404,114.759z"/>
		<path style="fill:#FB7B76;" d="M229.473,114.759h-52.966c-4.875,0-8.828-3.952-8.828-8.828c0-4.875,3.952-8.828,8.828-8.828
			h52.966c4.875,0,8.828,3.952,8.828,8.828C238.301,110.806,234.348,114.759,229.473,114.759z"/>
		<path style="fill:#FB7B76;" d="M388.37,79.448H202.99c-4.875,0-8.828-3.952-8.828-8.828s3.952-8.828,8.828-8.828H388.37
			c4.875,0,8.828,3.952,8.828,8.828S393.245,79.448,388.37,79.448z"/>
		<path style="fill:#FB7B76;" d="M167.68,79.448h-44.138c-4.875,0-8.828-3.952-8.828-8.828s3.952-8.828,8.828-8.828h44.138
			c4.875,0,8.828,3.952,8.828,8.828S172.555,79.448,167.68,79.448z"/>
	</g>
</g>
<g>
</g>
<g>
</g>
<g>
</g>
<g>
</g>
<g>
</g>
<g>
</g>
<g>
</g>
<g>
</g>
<g>
</g>
<g>
</g>
<g>
</g>
<g>
</g>
<g>
</g>
<g>
</g>
<g>
</g>
</svg>
