<?xml version="1.0" encoding="iso-8859-1"?>
<!-- Generator: Adobe Illustrator 19.0.0, SVG Export Plug-In . SVG Version: 6.00 Build 0)  -->
<svg version="1.1" id="Capa_1" xmlns="http://www.w3.org/2000/svg" xmlns:xlink="http://www.w3.org/1999/xlink" x="0px" y="0px"
	 viewBox="0 0 505.459 505.459" style="enable-background:new 0 0 505.459 505.459;" xml:space="preserve">
<g>
	<path style="fill:#F29C1F;" d="M455.263,139.222c13.81,6.301,30.112,2.899,40.248-8.4c0,0,7.168,10.283-13.086,30.538
		s-62.612,28.498-100.595-4.417s-6.882-106.67,26.034-104.136c18.627,1.864,36.269-8.721,43.39-26.034
		c4.59,16.425,0.359,34.056-11.186,46.609c50.645,0,48.111-63.306,48.111-63.306S543.883,80.975,455.263,139.222"/>
	<circle style="fill:#2C3E50;" cx="190.915" cy="304.467" r="190.915"/>
	<g>
		<path style="fill:#35495E;" d="M190.915,469.349c-4.793,0-8.678-3.885-8.678-8.678s3.885-8.678,8.678-8.678
			c65.615-0.246,123.268-43.585,141.737-106.548c1.378-4.546,6.155-7.14,10.718-5.819c4.563,1.321,7.216,6.065,5.953,10.644
			C328.676,420.634,264.246,469.068,190.915,469.349z"/>
		<path style="fill:#35495E;" d="M346.893,321.823h-0.486c-2.3-0.125-4.455-1.16-5.992-2.875c-1.537-1.716-2.328-3.972-2.2-6.271
			c0.15-2.719,0.226-5.456,0.226-8.209c0-4.793,3.885-8.678,8.678-8.678c4.793,0,8.678,3.885,8.678,8.678
			c0,3.072-0.084,6.124-0.252,9.155C355.292,318.218,351.495,321.816,346.893,321.823z"/>
		
			<ellipse transform="matrix(-0.7622 -0.6474 0.6474 -0.7622 81.8716 527.7697)" style="fill:#35495E;" cx="137.881" cy="248.846" rx="63.931" ry="92.334"/>
	</g>
	
		<ellipse transform="matrix(-0.5 -0.866 0.866 -0.5 -194.8343 671.3704)" style="fill:#556080;" cx="96.391" cy="391.929" rx="26.789" ry="17.356"/>
	<path style="fill:#805333;" d="M295.051,227.841c-4.13-0.005-7.685-2.92-8.498-6.969c-0.813-4.049,1.34-8.111,5.148-9.71
		c32.407-12.501,61.158-32.934,83.621-59.427c3.027-3.634,8.407-4.174,12.096-1.215c3.69,2.959,4.331,8.327,1.441,12.071
		c-24.272,28.749-55.377,50.941-90.459,64.538C297.343,227.588,296.204,227.83,295.051,227.841z"/>
	<path style="fill:#2C2F38;" d="M307.2,243.722c-1.934-0.001-3.813-0.649-5.337-1.84c-13.785-9.612-22.628-24.815-24.168-41.55
		c0-4.793,3.885-8.678,8.678-8.678c4.739-0.001,8.602,3.801,8.678,8.539c1.583,11.403,7.949,21.591,17.503,28.012
		c2.92,2.282,4.069,6.166,2.861,9.669C314.206,241.378,310.906,243.727,307.2,243.722z"/>
</g>
<g>
</g>
<g>
</g>
<g>
</g>
<g>
</g>
<g>
</g>
<g>
</g>
<g>
</g>
<g>
</g>
<g>
</g>
<g>
</g>
<g>
</g>
<g>
</g>
<g>
</g>
<g>
</g>
<g>
</g>
</svg>
