<?xml version="1.0" encoding="iso-8859-1"?>
<!-- Generator: Adobe Illustrator 19.0.0, SVG Export Plug-In . SVG Version: 6.00 Build 0)  -->
<svg version="1.1" id="Capa_1" xmlns="http://www.w3.org/2000/svg" xmlns:xlink="http://www.w3.org/1999/xlink" x="0px" y="0px"
	 viewBox="0 0 512.041 512.041" style="enable-background:new 0 0 512.041 512.041;" xml:space="preserve">
<g transform="translate(-1 -2)">
	<path style="fill:#B0D3F0;" d="M401.704,268.16L187.891,481.973c-42.752,42.752-112.066,42.752-154.818,0
		s-42.752-112.066,0-154.818l213.813-213.813L401.704,268.16z"/>
	<ellipse style="fill:#65DDB9;" cx="212.979" cy="302.155" rx="148.242" ry="44.138"/>
	<path style="fill:#46B29D;" d="M354.573,315.397L187.908,481.973c-42.757,42.757-112.079,42.757-154.836,0
		s-42.757-112.079,0-154.836l38.312-38.223l0.088,0.088c-3.989,3.244-6.425,8.02-6.709,13.153
		c0,24.364,66.383,44.138,148.215,44.138c66.56,0,122.792-13.065,141.506-30.985L354.573,315.397z"/>
	<path style="fill:#90BAE1;" d="M486.616,231.084l-38.7,38.7l-0.697-0.689c-19.279,19.271-79.845-10.196-135.459-65.81
		s-85.08-116.18-65.81-135.459l38.709-38.7L486.616,231.084z"/>
	<g>
		<path style="fill:#65DDB9;" d="M56.642,378.955c-1.63-1.652-2.576-3.859-2.648-6.179l0.185-1.677
			c0.11-0.584,0.297-1.151,0.556-1.686c0.18-0.53,0.433-1.032,0.75-1.492c0.352-0.469,0.739-0.912,1.156-1.324
			c0.82-0.807,1.792-1.443,2.86-1.871c1.055-0.444,2.177-0.707,3.319-0.777c3.549,0.03,6.734,2.183,8.086,5.464
			c1.441,3.265,0.679,7.083-1.907,9.543c-0.425,0.407-0.879,0.781-1.359,1.121c-0.461,0.32-0.967,0.57-1.501,0.742
			c-0.53,0.266-1.095,0.456-1.677,0.565l-1.642,0.221c-1.156-0.035-2.294-0.29-3.354-0.75
			C58.408,380.416,57.447,379.77,56.642,378.955z"/>
		<path style="fill:#65DDB9;" d="M100.78,423.093c-1.63-1.652-2.576-3.859-2.648-6.179l0.185-1.677
			c0.11-0.584,0.297-1.151,0.556-1.686c0.18-0.53,0.433-1.032,0.75-1.492c0.352-0.469,0.739-0.912,1.156-1.324
			c0.82-0.807,1.792-1.443,2.86-1.871c1.055-0.444,2.177-0.707,3.319-0.777c3.549,0.03,6.734,2.183,8.086,5.464
			c1.441,3.265,0.679,7.083-1.907,9.543c-0.425,0.407-0.879,0.781-1.359,1.121c-0.461,0.32-0.967,0.57-1.501,0.742
			c-0.53,0.266-1.095,0.456-1.677,0.565l-1.642,0.221c-1.156-0.035-2.294-0.29-3.354-0.75
			C102.546,424.554,101.585,423.908,100.78,423.093z"/>
		<path style="fill:#65DDB9;" d="M109.608,476.059c-1.63-1.652-2.576-3.859-2.648-6.179l0.185-1.677
			c0.11-0.584,0.297-1.151,0.556-1.686c0.18-0.53,0.433-1.032,0.75-1.492c0.352-0.469,0.739-0.912,1.156-1.324
			c0.82-0.807,1.792-1.443,2.86-1.871c1.055-0.444,2.177-0.707,3.319-0.777c3.549,0.03,6.734,2.183,8.086,5.464
			c1.441,3.265,0.679,7.083-1.907,9.543c-0.425,0.407-0.879,0.781-1.359,1.121c-0.461,0.32-0.967,0.57-1.501,0.742
			c-0.53,0.266-1.095,0.456-1.677,0.565l-1.642,0.221c-1.156-0.035-2.294-0.29-3.354-0.75
			C111.373,477.519,110.413,476.874,109.608,476.059z"/>
		<path style="fill:#65DDB9;" d="M144.918,396.61c-1.63-1.652-2.576-3.859-2.648-6.179l0.185-1.677
			c0.11-0.584,0.297-1.151,0.556-1.686c0.18-0.53,0.433-1.032,0.75-1.492c0.352-0.469,0.739-0.912,1.156-1.324
			c0.82-0.807,1.792-1.443,2.86-1.871c1.055-0.444,2.177-0.707,3.319-0.777c3.549,0.03,6.734,2.183,8.086,5.464
			c1.442,3.265,0.679,7.083-1.907,9.543c-0.425,0.407-0.879,0.781-1.359,1.121c-0.461,0.32-0.967,0.57-1.501,0.742
			c-0.53,0.266-1.095,0.456-1.677,0.565l-1.642,0.221c-1.156-0.035-2.294-0.29-3.354-0.75
			C146.684,398.071,145.723,397.425,144.918,396.61z"/>
		<path style="fill:#65DDB9;" d="M171.401,440.748c-1.63-1.652-2.576-3.859-2.648-6.179l0.185-1.677
			c0.11-0.584,0.297-1.151,0.556-1.686c0.18-0.53,0.433-1.032,0.75-1.492c0.352-0.469,0.739-0.912,1.156-1.324
			c0.82-0.807,1.792-1.443,2.86-1.871c1.055-0.444,2.177-0.707,3.319-0.777c3.549,0.03,6.734,2.183,8.086,5.464
			c1.442,3.265,0.679,7.083-1.907,9.543c-0.425,0.407-0.879,0.781-1.359,1.121c-0.461,0.32-0.967,0.57-1.501,0.741
			c-0.53,0.266-1.095,0.456-1.677,0.565l-1.642,0.221c-1.156-0.035-2.294-0.29-3.354-0.75
			C173.166,442.209,172.206,441.563,171.401,440.748z"/>
		<path style="fill:#65DDB9;" d="M224.366,387.783c-1.63-1.652-2.576-3.859-2.648-6.179l0.185-1.677
			c0.11-0.584,0.297-1.151,0.556-1.686c0.18-0.53,0.433-1.032,0.75-1.492c0.352-0.469,0.739-0.912,1.156-1.324
			c0.82-0.807,1.792-1.443,2.86-1.871c1.055-0.444,2.177-0.707,3.319-0.777c3.549,0.03,6.734,2.183,8.086,5.464
			c1.442,3.265,0.679,7.083-1.907,9.543c-0.425,0.407-0.879,0.781-1.359,1.121c-0.461,0.32-0.967,0.57-1.501,0.742
			c-0.53,0.266-1.095,0.456-1.677,0.565l-1.642,0.221c-1.156-0.035-2.294-0.29-3.354-0.75
			C226.132,389.243,225.171,388.598,224.366,387.783z"/>
		<path style="fill:#65DDB9;" d="M47.814,431.921c-1.63-1.652-2.576-3.859-2.648-6.179l0.185-1.677
			c0.11-0.584,0.297-1.151,0.556-1.686c0.18-0.53,0.433-1.032,0.75-1.492c0.352-0.469,0.739-0.912,1.156-1.324
			c0.82-0.807,1.792-1.443,2.86-1.871c1.055-0.444,2.177-0.707,3.319-0.777c3.549,0.03,6.734,2.183,8.086,5.464
			c1.442,3.265,0.679,7.083-1.907,9.543c-0.425,0.407-0.879,0.781-1.359,1.121c-0.461,0.32-0.967,0.57-1.501,0.742
			c-0.53,0.266-1.095,0.456-1.677,0.565l-1.642,0.221c-1.156-0.035-2.294-0.29-3.354-0.75
			C49.58,433.381,48.62,432.736,47.814,431.921z"/>
	</g>
	<path style="fill:#B0D3F0;" d="M462.358,145.554c2.383,3.266,4.679,6.532,6.974,9.887c21.363,33.721,28.778,62.676,16.596,74.946
		c-19.244,19.244-79.89-10.152-135.503-65.766s-85.01-116.259-65.766-135.503c12.27-12.182,41.225-4.767,74.946,16.596l9.887,6.974"
		/>
	<path style="fill:#B19046;" d="M510.053,97.885l-55.34,55.34c-10.593,10.593-39.892-1.677-65.554-27.366
		c-25.662-25.688-37.897-54.996-27.366-65.554l55.367-55.314L510.053,97.885z"/>
	
		<ellipse transform="matrix(-0.7071 -0.7071 0.7071 -0.7071 752.8854 416.5154)" style="fill:#FDD7AD;" cx="462.706" cy="52.33" rx="65.686" ry="27.366"/>
</g>
<g>
</g>
<g>
</g>
<g>
</g>
<g>
</g>
<g>
</g>
<g>
</g>
<g>
</g>
<g>
</g>
<g>
</g>
<g>
</g>
<g>
</g>
<g>
</g>
<g>
</g>
<g>
</g>
<g>
</g>
</svg>
