<?xml version="1.0" encoding="iso-8859-1"?>
<!-- Generator: Adobe Illustrator 19.0.0, SVG Export Plug-In . SVG Version: 6.00 Build 0)  -->
<svg version="1.1" id="Capa_1" xmlns="http://www.w3.org/2000/svg" xmlns:xlink="http://www.w3.org/1999/xlink" x="0px" y="0px"
	 viewBox="0 0 512 512" style="enable-background:new 0 0 512 512;" xml:space="preserve">
<g>
	<g>
		<path style="fill:#7F8C8D;" d="M141.241,97.103v26.483c0,4.875-3.952,8.828-8.828,8.828c-4.875,0-8.828-3.952-8.828-8.828V98.163
			l-8.563-34.251c-0.175-0.693-0.264-1.404-0.265-2.119h17.92l6.621,26.483l1.677,6.709
			C141.152,95.677,141.24,96.389,141.241,97.103z"/>
		<path style="fill:#7F8C8D;" d="M158.897,105.931h-26.483c-4.875,0-8.828-3.952-8.828-8.828s3.952-8.828,8.828-8.828h26.483
			c4.875,0,8.828,3.952,8.828,8.828S163.772,105.931,158.897,105.931z"/>
	</g>
	<path style="fill:#5E5F62;" d="M282.483,141.241v17.655c-0.003,4.057-2.771,7.589-6.709,8.563l-28.601,7.15v19.597h-17.655v-26.483
		c0.003-4.057,2.771-7.589,6.709-8.563l28.601-7.15v-10.77c0-4.875,3.952-8.828,8.828-8.828S282.483,136.366,282.483,141.241z"/>
	<path style="fill:#7F8C8D;" d="M406.069,61.793c0.007,2.345-0.913,4.598-2.56,6.268l-32.75,32.662v14.036
		c0,4.875-3.952,8.828-8.828,8.828c-4.875,0-8.828-3.952-8.828-8.828V97.103c0.017-2.34,0.934-4.584,2.56-6.268l29.043-29.043
		H406.069z"/>
	<g>
		<path style="fill:#7F6E5D;" d="M63.779,70.621h42.152v105.931H63.779c-5.972,0-10.814-4.841-10.814-10.814V81.434
			C52.966,75.462,57.807,70.621,63.779,70.621z"/>
		<path style="fill:#7F6E5D;" d="M447.356,176.552h-50.114V70.621h50.114c6.45,0,11.679,5.229,11.679,11.679v82.573
			C459.035,171.323,453.806,176.552,447.356,176.552z"/>
	</g>
	<path style="fill:#95A5A5;" d="M414.897,185.379H185.379V61.793h229.517c4.875,0,8.828,3.952,8.828,8.828v105.931
		C423.724,181.427,419.772,185.379,414.897,185.379z"/>
	<g>
		<path style="fill:#7A6C71;" d="M300.138,158.897c-6.248,58.639-9.195,117.582-8.828,176.552
			c-0.293,51.396,2.102,102.772,7.177,153.918c0.971,8.652-4.561,16.703-12.985,18.9c-19.353,4.979-39.651,4.979-59.004,0
			c-8.424-2.197-13.956-10.248-12.985-18.9c5.074-51.146,7.47-102.522,7.177-153.918c0.368-58.969-2.58-117.913-8.828-176.552
			H300.138z"/>
		<path style="fill:#7A6C71;" d="M308.966,52.966V30.137c0-2.341-0.931-4.586-2.586-6.241l-21.31-21.31
			C283.414,0.931,281.169,0,278.828,0h-45.656c-2.341,0-4.586,0.931-6.241,2.586l-21.31,21.31c-1.656,1.655-2.586,3.9-2.586,6.241
			v22.828"/>
	</g>
	<g>
		<path style="fill:#59474E;" d="M298.461,489.401c0.995,8.653-4.543,16.714-12.977,18.891c-9.633,2.473-19.539,3.719-29.484,3.708
			V158.897h44.138c-6.248,58.639-9.195,117.582-8.828,176.552C291.016,386.855,293.403,438.243,298.461,489.401z"/>
		<path style="fill:#59474E;" d="M308.966,30.102v22.863H256V0h22.863c2.314,0.018,4.53,0.936,6.179,2.56l21.363,21.363
			C308.029,25.572,308.947,27.788,308.966,30.102z"/>
	</g>
	<path style="fill:#7F8C8D;" d="M203.035,52.966h105.931c4.875,0,8.828,3.952,8.828,8.828v123.586c0,4.875-3.952,8.828-8.828,8.828
		H203.035c-4.875,0-8.828-3.952-8.828-8.828V61.793C194.207,56.918,198.159,52.966,203.035,52.966z"/>
	<path style="fill:#95A5A5;" d="M194.207,61.793v123.586H97.104c-4.875,0-8.828-3.952-8.828-8.828V70.621
		c0-4.875,3.952-8.828,8.828-8.828H194.207z"/>
</g>
<g>
</g>
<g>
</g>
<g>
</g>
<g>
</g>
<g>
</g>
<g>
</g>
<g>
</g>
<g>
</g>
<g>
</g>
<g>
</g>
<g>
</g>
<g>
</g>
<g>
</g>
<g>
</g>
<g>
</g>
</svg>
