<?xml version="1.0" encoding="iso-8859-1"?>
<!-- Generator: Adobe Illustrator 19.0.0, SVG Export Plug-In . SVG Version: 6.00 Build 0)  -->
<svg version="1.1" id="Capa_1" xmlns="http://www.w3.org/2000/svg" xmlns:xlink="http://www.w3.org/1999/xlink" x="0px" y="0px"
	 viewBox="0 0 512 512" style="enable-background:new 0 0 512 512;" xml:space="preserve">
<g>
	<path style="fill:#95A5A5;" d="M326.621,61.793c0,0,151.411-7.945,181.654,89.671c1.026,3.167,0.183,6.642-2.181,8.987
		c-2.363,2.345-5.845,3.16-9.004,2.11c-33.351-10.814-115.35-33.156-170.47-12.491H185.379
		C130.26,129.404,48.26,151.746,14.91,162.56c-3.159,1.051-6.64,0.235-9.004-2.11c-2.363-2.345-3.207-5.82-2.181-8.987
		c30.243-97.615,181.654-89.671,181.654-89.671H326.621z"/>
	<path style="fill:#7F8C8D;" d="M507.233,159.073c-2.22,3.306-6.379,4.716-10.152,3.443
		c-33.368-10.77-115.377-33.103-170.461-12.447H185.379c-55.084-20.657-137.092,1.677-170.461,12.447
		c-3.773,1.274-7.932-0.137-10.152-3.443l4.061-0.177c79.448-70.621,165.341-58.615,176.552-52.966h141.241
		c11.211-5.65,97.103-17.655,176.552,52.966L507.233,159.073z"/>
	<path style="fill:#7A6C71;" d="M300.138,158.897c-6.248,58.639-9.195,117.582-8.828,176.552
		c-0.293,51.396,2.102,102.772,7.177,153.918c0.971,8.652-4.561,16.703-12.985,18.9c-19.353,4.979-39.651,4.979-59.004,0
		c-8.424-2.197-13.956-10.248-12.985-18.9c5.074-51.146,7.47-102.522,7.177-153.918c0.368-58.969-2.58-117.913-8.828-176.552
		H300.138z"/>
	<path style="fill:#7F8C8D;" d="M194.207,52.966h123.586c4.875,0,8.828,3.952,8.828,8.828v88.276c0,4.875-3.952,8.828-8.828,8.828
		H194.207c-4.875,0-8.828-3.952-8.828-8.828V61.793C185.379,56.918,189.332,52.966,194.207,52.966z"/>
	<path style="fill:#7A6C71;" d="M308.966,52.966V30.137c0-2.341-0.931-4.586-2.586-6.241l-21.31-21.31
		C283.414,0.931,281.169,0,278.828,0h-45.656c-2.341,0-4.586,0.931-6.241,2.586l-21.31,21.31c-1.656,1.655-2.586,3.9-2.586,6.241
		v22.828"/>
	<path style="fill:#B19046;" d="M185.379,167.724c-3.8,0-7.173-2.431-8.375-6.036c-1.202-3.605,0.038-7.574,3.078-9.854
		L318.323,48.11c3.9-2.925,9.433-2.135,12.359,1.766c2.925,3.9,2.135,9.433-1.766,12.359l-138.24,103.724
		C189.151,167.11,187.29,167.731,185.379,167.724z"/>
	<path style="fill:#E4C05C;" d="M326.621,167.724c-1.91,0-3.769-0.619-5.297-1.766L183.084,62.234
		c-3.9-2.925-4.691-8.458-1.766-12.359c2.925-3.9,8.458-4.691,12.359-1.766l138.24,103.724c3.04,2.28,4.28,6.249,3.078,9.854
		C333.794,165.293,330.42,167.724,326.621,167.724z"/>
	<g>
		<path style="fill:#59474E;" d="M298.461,489.401c0.994,8.653-4.543,16.714-12.977,18.891c-9.633,2.473-19.539,3.719-29.484,3.708
			V158.897h44.138c-6.248,58.639-9.195,117.582-8.828,176.552C291.016,386.855,293.403,438.243,298.461,489.401z"/>
		<path style="fill:#59474E;" d="M308.966,30.102v22.863H256V0h22.863c2.314,0.018,4.53,0.936,6.179,2.56l21.363,21.363
			C308.029,25.572,308.947,27.788,308.966,30.102z"/>
	</g>
</g>
<g>
</g>
<g>
</g>
<g>
</g>
<g>
</g>
<g>
</g>
<g>
</g>
<g>
</g>
<g>
</g>
<g>
</g>
<g>
</g>
<g>
</g>
<g>
</g>
<g>
</g>
<g>
</g>
<g>
</g>
</svg>
