<?xml version="1.0" encoding="iso-8859-1"?>
<!-- Generator: Adobe Illustrator 19.0.0, SVG Export Plug-In . SVG Version: 6.00 Build 0)  -->
<svg version="1.1" id="Capa_1" xmlns="http://www.w3.org/2000/svg" xmlns:xlink="http://www.w3.org/1999/xlink" x="0px" y="0px"
	 viewBox="0 0 512 512" style="enable-background:new 0 0 512 512;" xml:space="preserve">
<g>
	<path style="fill:#F0C419;" d="M450.207,423.724l24.452-187.763l-51.553-11.741l-30.014,32.574
		c-8.429,9.126-21.033,13.152-33.191,10.601c-12.158-2.551-22.081-11.303-26.131-23.047l-39.548-114.406h-76.447l-39.548,114.406
		c-4.05,11.744-13.973,20.496-26.131,23.047c-12.158,2.551-24.762-1.475-33.191-10.601l-30.014-32.574l-51.553,11.741
		l24.452,187.763H450.207z"/>
	<circle style="fill:#B19046;" cx="52.966" cy="185.379" r="52.966"/>
	<circle style="fill:#E4C05C;" cx="52.966" cy="185.379" r="17.655"/>
	<circle style="fill:#B19046;" cx="459.034" cy="185.379" r="52.966"/>
	<circle style="fill:#E4C05C;" cx="459.034" cy="185.379" r="17.655"/>
	<circle style="fill:#B19046;" cx="256" cy="70.621" r="70.621"/>
	<circle style="fill:#E4C05C;" cx="256" cy="70.621" r="35.31"/>
	<path style="fill:#894B9D;" d="M28.601,450.207h454.797c15.796,0,28.601,12.805,28.601,28.601v4.59
		C512,499.195,499.195,512,483.399,512H28.601C12.805,512,0,499.195,0,483.399v-4.59C0,463.012,12.805,450.207,28.601,450.207z"/>
	<path style="fill:#B19046;" d="M56.09,414.897H455.91c16.352,0,29.608,13.256,29.608,29.608v5.703c0,4.875-3.952,8.828-8.828,8.828
		H35.31c-4.875,0-8.828-3.952-8.828-8.828v-5.703C26.483,428.152,39.739,414.897,56.09,414.897z"/>
	<g>
		<path style="fill:#FF5364;" d="M263.945,254.234l14.583,29.343c1.289,2.596,3.77,4.394,6.638,4.811l32.512,4.687
			c3.336,0.478,6.109,2.814,7.146,6.021s0.159,6.724-2.265,9.066l-23.481,22.713c-2.096,2.029-3.055,4.963-2.56,7.839l5.544,32.115
			c0.568,3.307-0.787,6.65-3.499,8.627c-2.711,1.977-6.309,2.246-9.284,0.695l-29.193-15.236c-2.561-1.338-5.614-1.338-8.174,0
			l-29.193,15.236c-2.975,1.552-6.573,1.283-9.284-0.695c-2.711-1.977-4.067-5.32-3.499-8.627l5.544-32.115
			c0.495-2.875-0.464-5.81-2.56-7.839l-23.446-22.696c-2.424-2.342-3.302-5.859-2.265-9.066c1.038-3.206,3.81-5.542,7.146-6.021
			l32.512-4.687c2.868-0.417,5.35-2.215,6.638-4.811l14.548-29.361c1.475-3.045,4.561-4.98,7.945-4.98
			C259.384,249.255,262.47,251.189,263.945,254.234z"/>
		<path style="fill:#FF5364;" d="M105.931,361.931H88.276c-4.875,0-8.828-3.952-8.828-8.828s3.952-8.828,8.828-8.828h17.655
			c4.875,0,8.828,3.952,8.828,8.828S110.806,361.931,105.931,361.931z"/>
		<path style="fill:#FF5364;" d="M176.552,361.931h-35.31c-4.875,0-8.828-3.952-8.828-8.828s3.952-8.828,8.828-8.828h35.31
			c4.875,0,8.828,3.952,8.828,8.828S181.427,361.931,176.552,361.931z"/>
		<path style="fill:#FF5364;" d="M423.724,361.931h-17.655c-4.875,0-8.828-3.952-8.828-8.828s3.952-8.828,8.828-8.828h17.655
			c4.875,0,8.828,3.952,8.828,8.828S428.599,361.931,423.724,361.931z"/>
		<path style="fill:#FF5364;" d="M370.759,361.931h-35.31c-4.875,0-8.828-3.952-8.828-8.828s3.952-8.828,8.828-8.828h35.31
			c4.875,0,8.828,3.952,8.828,8.828S375.634,361.931,370.759,361.931z"/>
	</g>
</g>
<g>
</g>
<g>
</g>
<g>
</g>
<g>
</g>
<g>
</g>
<g>
</g>
<g>
</g>
<g>
</g>
<g>
</g>
<g>
</g>
<g>
</g>
<g>
</g>
<g>
</g>
<g>
</g>
<g>
</g>
</svg>
