<?xml version="1.0" encoding="iso-8859-1"?>
<!-- Generator: Adobe Illustrator 19.0.0, SVG Export Plug-In . SVG Version: 6.00 Build 0)  -->
<svg version="1.1" id="Capa_1" xmlns="http://www.w3.org/2000/svg" xmlns:xlink="http://www.w3.org/1999/xlink" x="0px" y="0px"
	 viewBox="0 0 511.978 511.978" style="enable-background:new 0 0 511.978 511.978;" xml:space="preserve">
<g>
	<path style="fill:#F0C419;" d="M441.368,65.412V338.45c0.011,25.989-11.224,50.711-30.808,67.796l-97.103,84.215
		c-32.941,28.69-81.995,28.69-114.935,0l-97.103-84.215c-19.584-17.084-30.819-41.807-30.808-67.796V65.412
		c0.036-4.356,2.688-8.262,6.723-9.903c4.035-1.641,8.661-0.694,11.727,2.4c17.126,14.791,40.462,20.145,62.323,14.301
		c23.217-5.65,39.901-22.599,55.702-39.459c3.619-3.884,7.239-7.768,10.946-11.652C228.182,10.505,240.453,0,255.989,0
		s27.807,10.505,37.959,21.098c3.708,3.884,7.327,7.768,10.946,11.652c15.801,16.861,32.486,33.81,55.702,39.459
		c21.861,5.845,45.197,0.49,62.323-14.301c3.066-3.094,7.692-4.041,11.727-2.4C438.68,57.15,441.332,61.057,441.368,65.412z"/>
	<path style="fill:#805333;" d="M158.886,106.726v302.61l-34.339-29.749c-11.854-10.382-18.645-25.379-18.626-41.137l0-232.342
		c8.992,2.351,18.248,3.538,27.542,3.531C142.02,109.639,150.55,108.662,158.886,106.726z"/>
	<path style="fill:#603E26;" d="M220.679,69.561v393.357l-61.793-53.583v-302.61c0.265-0.088,0.441-0.088,0.706-0.177
		C182.957,100.047,204.088,87.252,220.679,69.561z"/>
	<path style="fill:#805333;" d="M291.299,69.65v393.269l-0.971,0.883c-19.668,17.185-49.011,17.185-68.679,0l-0.971-0.883V69.561
		c4.502-4.414,8.563-8.739,12.182-12.623l10.681-11.476c0.088-0.088,0.265-0.177,0.353-0.265c3.162-3.291,7.53-5.151,12.094-5.151
		s8.931,1.86,12.094,5.151c0.158,0.069,0.284,0.195,0.353,0.353c3.531,3.708,7.062,7.503,10.593,11.299
		S286.709,65.148,291.299,69.65z"/>
	<path style="fill:#603E26;" d="M353.093,106.726v302.61l-61.793,53.583V69.65c16.599,17.574,37.647,30.325,60.91,36.899
		C352.494,106.65,352.791,106.709,353.093,106.726z"/>
	<path style="fill:#805333;" d="M406.058,106.108l0,232.342c0.018,15.758-6.772,30.755-18.626,41.137l-34.339,29.749v-302.61
		c8.338,1.926,16.866,2.904,25.423,2.913C387.81,109.646,397.066,108.459,406.058,106.108z"/>
</g>
<g>
</g>
<g>
</g>
<g>
</g>
<g>
</g>
<g>
</g>
<g>
</g>
<g>
</g>
<g>
</g>
<g>
</g>
<g>
</g>
<g>
</g>
<g>
</g>
<g>
</g>
<g>
</g>
<g>
</g>
</svg>
