<?xml version="1.0" encoding="iso-8859-1"?>
<!-- Generator: Adobe Illustrator 19.0.0, SVG Export Plug-In . SVG Version: 6.00 Build 0)  -->
<svg version="1.1" id="Capa_1" xmlns="http://www.w3.org/2000/svg" xmlns:xlink="http://www.w3.org/1999/xlink" x="0px" y="0px"
	 viewBox="0 0 495.359 495.359" style="enable-background:new 0 0 495.359 495.359;" xml:space="preserve">
<g>
	<path style="fill:#FF5364;" d="M447.872,48.256l-0.768-0.768c-63.317-63.317-165.974-63.317-229.291,0L132.65,132.65
		l-85.163,85.163c-63.317,63.317-63.317,165.974,0,229.291l0.768,0.768c63.317,63.317,165.974,63.317,229.291,0l85.163-85.163
		l85.163-85.163C511.188,214.229,511.188,111.572,447.872,48.256z"/>
	<path style="fill:#894B9D;" d="M362.709,362.709l-85.163,85.163c-63.317,63.317-165.974,63.317-229.291,0l-0.768-0.768
		c-63.317-63.317-63.317-165.974,0-229.291l85.163-85.163l36.352,36.352l145.323,145.323L362.709,362.709z"/>
	<path style="fill:#FB7B76;" d="M296.14,304c-18.167,0.057-35.6-7.162-48.41-20.045l-36.395-36.361l-36.318,36.378
		c-8.617,8.751-21.265,12.21-33.137,9.062s-21.143-12.42-24.292-24.292s0.31-24.519,9.062-33.137l48.367-48.452l72.721-72.593
		c13.37-13.323,34.997-13.323,48.367,0l60.493,60.493c26.714,26.752,26.714,70.084,0,96.836l-12.117,12.117
		C331.693,296.871,314.28,304.072,296.14,304z M296.098,235.588l12.254-12.16l-36.446-36.335l-12.194,12.126L296.098,235.588z"/>
	<path style="fill:#FFFFFF;" d="M344.533,187.093l-60.501-60.501c-6.707-6.656-17.527-6.656-24.235,0l-72.704,72.619l-48.384,48.469
		c-4.329,4.329-6.02,10.639-4.435,16.553c1.585,5.914,6.204,10.533,12.117,12.117c5.914,1.585,12.223-0.106,16.553-4.435
		l48.384-48.469l48.469,48.469c9.629,9.631,22.69,15.042,36.309,15.042c13.619,0,26.68-5.411,36.309-15.042l12.117-12.117
		C364.584,239.71,364.584,207.18,344.533,187.093z M320.384,235.562l-12.203,12.117c-3.185,3.234-7.535,5.056-12.075,5.056
		s-8.889-1.821-12.075-5.056l-48.469-48.469l36.352-36.267l48.469,48.469c3.205,3.201,5.005,7.545,5.005,12.075
		C325.389,228.017,323.588,232.361,320.384,235.562z"/>
	
		<ellipse transform="matrix(-0.0477 -0.9989 0.9989 -0.0477 292.2563 411.8869)" style="fill:#FB7B76;" cx="342.481" cy="66.62" rx="30.558" ry="52.241"/>
	<g>
		
			<ellipse transform="matrix(-0.0477 -0.9989 0.9989 -0.0477 -267.265 429.2996)" style="fill:#955BA5;" cx="71.022" cy="342.059" rx="52.522" ry="37.666"/>
		<ellipse style="fill:#955BA5;" cx="124.663" cy="431.146" rx="29.15" ry="29.884"/>
	</g>
</g>
<g>
</g>
<g>
</g>
<g>
</g>
<g>
</g>
<g>
</g>
<g>
</g>
<g>
</g>
<g>
</g>
<g>
</g>
<g>
</g>
<g>
</g>
<g>
</g>
<g>
</g>
<g>
</g>
<g>
</g>
</svg>
