<?xml version="1.0" encoding="iso-8859-1"?>
<!-- Generator: Adobe Illustrator 19.0.0, SVG Export Plug-In . SVG Version: 6.00 Build 0)  -->
<svg version="1.1" id="Capa_1" xmlns="http://www.w3.org/2000/svg" xmlns:xlink="http://www.w3.org/1999/xlink" x="0px" y="0px"
	 viewBox="0 0 512 512" style="enable-background:new 0 0 512 512;" xml:space="preserve">
<g>
	<path style="fill:#F0C419;" d="M487.636,107.873c-1.396-7.067-4.519-13.678-9.092-19.244L411.366,6.444
		c-3.375-4.077-8.39-6.439-13.683-6.444H114.317c-5.292,0.006-10.308,2.367-13.683,6.444L33.457,88.629
		c-4.573,5.566-7.697,12.177-9.092,19.244L0,229.517v264.828c0.029,9.739,7.917,17.626,17.655,17.655h476.69
		c9.739-0.029,17.626-7.917,17.655-17.655V229.517L487.636,107.873z"/>
	<polygon style="fill:#B49313;" points="308.966,264.828 308.966,388.414 287.779,406.069 256,432.552 224.221,406.069 
		203.034,388.414 203.034,264.828 	"/>
	<g>
		<path style="fill:#805333;" d="M476.69,273.655v61.793H308.966v-70.621h158.897C472.737,264.828,476.69,268.78,476.69,273.655z"/>
		<path style="fill:#805333;" d="M203.034,264.828v70.621H35.31v-61.793c0-4.875,3.952-8.828,8.828-8.828H203.034z"/>
	</g>
	<g>
		<polygon style="fill:#603E26;" points="224.221,406.069 35.31,406.069 35.31,335.448 203.034,335.448 203.034,388.414 		"/>
		<polygon style="fill:#603E26;" points="476.69,335.448 476.69,406.069 287.779,406.069 308.966,388.414 308.966,335.448 		"/>
	</g>
	<path style="fill:#805333;" d="M476.69,406.069v61.793c0,4.875-3.952,8.828-8.828,8.828H44.138c-4.875,0-8.828-3.952-8.828-8.828
		v-61.793h188.91L256,432.552l31.779-26.483H476.69z"/>
	<g>
		<path style="fill:#2C3E50;" d="M256,379.586c-14.626,0-26.483-11.857-26.483-26.483s11.857-26.483,26.483-26.483
			c14.626,0,26.483,11.857,26.483,26.483S270.626,379.586,256,379.586z"/>
		<path style="fill:#2C3E50;" d="M256,397.241c-4.875,0-8.828-3.952-8.828-8.828v-17.655c0-4.875,3.952-8.828,8.828-8.828
			s8.828,3.952,8.828,8.828v17.655C264.828,393.289,260.875,397.241,256,397.241z"/>
	</g>
	<path style="fill:#F0C419;" d="M158.897,0L79.448,105.931l-9.446,44.05l-17.037,79.537H0l24.364-121.644
		c1.396-7.067,4.519-13.678,9.092-19.244l67.178-82.185c3.375-4.077,8.39-6.439,13.683-6.444H158.897z"/>
	<g>
		<polygon style="fill:#805333;" points="203.034,0 203.034,79.448 99.31,79.448 158.897,0 		"/>
		<polygon style="fill:#805333;" points="412.69,79.448 308.966,79.448 308.966,0 353.103,0 		"/>
	</g>
	<path style="fill:#F0C419;" d="M512,229.517h-52.966l-17.037-79.537l-9.445-44.05L353.103,0h44.579
		c5.293,0.006,10.308,2.367,13.683,6.444l67.178,82.185c4.573,5.566,7.697,12.177,9.092,19.244L512,229.517z"/>
	<polygon style="fill:#603E26;" points="441.997,149.981 441.379,150.069 308.966,150.069 308.966,79.448 412.69,79.448 
		432.552,105.931 	"/>
	<polygon style="fill:#805333;" points="459.034,229.517 308.966,229.517 308.966,150.069 441.379,150.069 441.997,149.981 	"/>
	<rect x="203.034" style="fill:#F0C419;" width="105.931" height="229.517"/>
	<circle style="fill:#24AE5F;" cx="256" cy="44.138" r="17.655"/>
	<circle style="fill:#CC66A1;" cx="256" cy="114.759" r="17.655"/>
	<circle style="fill:#FF5364;" cx="256" cy="185.379" r="17.655"/>
	<polygon style="fill:#805333;" points="203.034,150.069 203.034,229.517 52.966,229.517 70.003,149.981 70.621,150.069 	"/>
	<polygon style="fill:#603E26;" points="203.034,79.448 203.034,150.069 70.621,150.069 70.003,149.981 79.448,105.931 
		99.31,79.448 	"/>
	<path style="fill:#B49313;" d="M0,229.517h512v8.828c0,4.875-3.952,8.828-8.828,8.828H8.828c-4.875,0-8.828-3.952-8.828-8.828
		V229.517z"/>
</g>
<g>
</g>
<g>
</g>
<g>
</g>
<g>
</g>
<g>
</g>
<g>
</g>
<g>
</g>
<g>
</g>
<g>
</g>
<g>
</g>
<g>
</g>
<g>
</g>
<g>
</g>
<g>
</g>
<g>
</g>
</svg>
