<?xml version="1.0" encoding="iso-8859-1"?>
<!-- Generator: Adobe Illustrator 19.0.0, SVG Export Plug-In . SVG Version: 6.00 Build 0)  -->
<svg version="1.1" id="Capa_1" xmlns="http://www.w3.org/2000/svg" xmlns:xlink="http://www.w3.org/1999/xlink" x="0px" y="0px"
	 viewBox="0 0 512.036 512.036" style="enable-background:new 0 0 512.036 512.036;" xml:space="preserve">
<g>
	<g>
		<path style="fill:#24AE5F;" d="M198.177,512c5.95-59.48-48.225-90.924-84.198-105.048c-3.7-1.488-7.937-0.31-10.339,2.873
			s-2.372,7.581,0.073,10.731c18.008,22.819,41.49,58.827,41.49,91.48L198.177,512z"/>
		<path style="fill:#24AE5F;" d="M216.282,512c-5.95-59.48,48.225-90.924,84.198-105.048c3.687-1.456,7.892-0.275,10.283,2.887
			c2.391,3.162,2.38,7.53-0.025,10.681c-17.999,22.819-41.49,58.818-41.49,91.48H216.282z"/>
	</g>
	<path style="fill:#7F5B53;" d="M225.11,231.548l0,280.452H189.8V17.655C189.829,7.917,197.716,0.029,207.455,0
		c4.684-0.025,9.177,1.855,12.447,5.208c3.353,3.27,5.233,7.763,5.208,12.447V231.548z"/>
	<path style="fill:#CB8252;" d="M474.578,147.862l-112.817,91.366c-7.631,6.166-17.467,8.913-27.189,7.592l-56.497-7.857
		l-17.655-2.383L92.696,213.363l-17.655-2.472l-28.866-3.972c-8.743-1.191-15.264-8.655-15.272-17.479V78.919
		c0.007-8.824,6.529-16.287,15.272-17.479l37.076-5.12l17.567-2.472l203.741-28.16l17.655-2.472l12.359-1.677
		c9.722-1.321,19.558,1.426,27.189,7.592l67.266,54.554l13.859,11.123l31.691,25.688c4.144,3.333,6.555,8.364,6.555,13.683
		S478.722,144.53,474.578,147.862z"/>
	<g>
		<path style="fill:#805333;" d="M110.351,88.276v26.483c0,4.875-3.952,8.828-8.828,8.828c-4.875,0-8.828-3.952-8.828-8.828V89.512
			L83.251,56.32l17.567-2.472l7.327,25.6l1.854,6.444C110.252,86.661,110.371,87.467,110.351,88.276z"/>
		<path style="fill:#805333;" d="M128.007,97.104h-26.483c-4.875,0-8.828-3.952-8.828-8.828c0-4.875,3.952-8.828,8.828-8.828h26.483
			c4.875,0,8.828,3.952,8.828,8.828C136.834,93.151,132.882,97.104,128.007,97.104z"/>
		<path style="fill:#805333;" d="M92.696,185.38v27.983l-17.655-2.472v-21.892l-15.095-15.007c-3.461-3.461-3.461-9.074,0-12.535
			c3.461-3.461,9.074-3.461,12.535,0l17.655,17.655C91.762,180.795,92.679,183.039,92.696,185.38z"/>
		<path style="fill:#805333;" d="M322.213,185.38v17.655c0.001,4.195-2.951,7.812-7.062,8.651l-37.076,7.415v19.862l-17.655-2.383
			v-24.717c-0.001-4.195,2.951-7.812,7.062-8.651l37.076-7.415V185.38c0-4.875,3.952-8.828,8.828-8.828
			S322.213,180.504,322.213,185.38z"/>
		<path style="fill:#805333;" d="M322.213,23.217v29.749c-0.015,2.953-1.506,5.703-3.972,7.327l-4.237,2.825l-18.273,12.27v12.888
			c0,4.875-3.952,8.828-8.828,8.828s-8.828-3.952-8.828-8.828V70.621c0.015-2.953,1.506-5.703,3.972-7.327l22.51-15.095v-22.51
			L322.213,23.217z"/>
		<path style="fill:#805333;" d="M331.041,70.621c-1.366,0-2.714-0.317-3.937-0.927l-17.655-8.828
			c-2.823-1.41-4.679-4.218-4.869-7.368c-0.19-3.149,1.314-6.161,3.946-7.901c2.632-1.74,5.992-1.943,8.815-0.533l17.655,8.828
			c3.669,1.829,5.596,5.942,4.653,9.932S335.14,70.629,331.041,70.621z"/>
		<path style="fill:#805333;" d="M442.886,94.809l-32.397,32.397v14.036c0,4.875-3.952,8.828-8.828,8.828s-8.828-3.952-8.828-8.828
			v-17.655c0.017-2.34,0.934-4.584,2.56-6.268l33.633-33.633L442.886,94.809z"/>
	</g>
</g>
<g>
</g>
<g>
</g>
<g>
</g>
<g>
</g>
<g>
</g>
<g>
</g>
<g>
</g>
<g>
</g>
<g>
</g>
<g>
</g>
<g>
</g>
<g>
</g>
<g>
</g>
<g>
</g>
<g>
</g>
</svg>
